<?xml version="1.0" standalone="no"?>
<!DOCTYPE svg PUBLIC "-//W3C//DTD SVG 1.1//EN" "http://www.w3.org/Graphics/SVG/1.1/DTD/svg11.dtd" >
<svg xmlns="http://www.w3.org/2000/svg">
<metadata></metadata>
<defs>
<font id="vida_31_proregular" horiz-adv-x="1134" >
<font-face units-per-em="2048" ascent="1638" descent="-410" />
<missing-glyph horiz-adv-x="585" />
<glyph horiz-adv-x="2048" />
<glyph horiz-adv-x="2048" />
<glyph unicode="&#xd;" horiz-adv-x="2048" />
<glyph unicode=" "  horiz-adv-x="585" />
<glyph unicode="&#x09;" horiz-adv-x="585" />
<glyph unicode="&#xa0;" horiz-adv-x="585" />
<glyph unicode="!" horiz-adv-x="677" d="M242 90q0 60 17.5 77t76.5 17q63 0 80.5 -17t17.5 -77q0 -65 -18 -84.5t-80 -19.5q-58 0 -76 19.5t-18 84.5zM258 1444q0 8 5 13t13 5h123q8 0 13.5 -5.5t5.5 -12.5l-21 -1032q0 -8 -5.5 -13.5t-12.5 -5.5h-82q-7 0 -12.5 5.5t-5.5 13.5z" />
<glyph unicode="&#x22;" horiz-adv-x="632" d="M102 1409q0 7 5.5 12.5t13.5 5.5h112q8 0 13.5 -5.5t5.5 -12.5l-25 -434q0 -8 -5.5 -13.5t-12.5 -5.5h-68q-7 0 -12.5 5.5t-5.5 13.5zM381 1409q0 7 5.5 12.5t12.5 5.5h113q8 0 13 -5.5t5 -12.5l-24 -434q0 -7 -6 -13t-13 -6h-67q-8 0 -13.5 6t-5.5 13z" />
<glyph unicode="#" d="M47 444v76q0 8 5.5 13.5t13.5 5.5h227v383h-227q-8 0 -13.5 5.5t-5.5 12.5v76q0 7 5.5 12.5t13.5 5.5h227v410q0 8 5.5 13t12.5 5h90q8 0 13.5 -5.5t5.5 -12.5v-410h301v410q0 8 5.5 13t12.5 5h90q8 0 13.5 -5.5t5.5 -12.5v-410h221q7 0 12.5 -5t5.5 -13v-76 q0 -8 -5.5 -13t-12.5 -5h-221v-383h221q7 0 12.5 -5.5t5.5 -13.5v-76q0 -8 -5.5 -13t-12.5 -5h-221v-408q0 -7 -5.5 -12.5t-13.5 -5.5h-90q-7 0 -12.5 5t-5.5 13v408h-301v-408q0 -7 -5.5 -12.5t-13.5 -5.5h-90q-7 0 -12.5 5t-5.5 13v408h-227q-8 0 -13.5 5.5t-5.5 12.5z M420 539h301v383h-301v-383z" />
<glyph unicode="$" d="M129 1028q0 194 89.5 287t289.5 108v201q0 8 5 13t13 5h76q8 0 13.5 -5.5t5.5 -12.5v-197q171 -3 333 -49q18 -4 11 -24l-27 -84q-1 -7 -7 -11t-11 -2q-133 45 -299 48v-529q229 -26 314 -108t85 -269q0 -191 -98 -285.5t-301 -109.5v-221q0 -7 -5.5 -13t-13.5 -6h-76 q-7 0 -12.5 5.5t-5.5 13.5v217q-180 0 -338 49q-17 3 -10 25l24 84q1 7 8.5 10.5t12.5 1.5q130 -47 303 -47v555q-217 26 -298 99.5t-81 250.5zM270 1032q0 -69 8.5 -109t36 -68.5t71 -42t122.5 -24.5v512q-64 -4 -106 -16t-68.5 -30.5t-40.5 -52t-18.5 -71.5t-4.5 -98z M621 125q154 12 206 70.5t52 201.5q0 72 -9 114.5t-37.5 76t-78 50.5t-133.5 28v-541z" />
<glyph unicode="%" horiz-adv-x="2054" d="M102 1012q0 134 18 220.5t61.5 138t107 71.5t162.5 20q100 0 163.5 -20t107 -71.5t61.5 -137.5t18 -221q0 -181 -34.5 -282t-109 -144t-206.5 -43q-130 0 -204.5 43t-109.5 144.5t-35 281.5zM248 1012q0 -150 17 -224.5t58.5 -104.5t125.5 -30q65 0 103.5 14.5t62.5 56.5 t32 108.5t8 179.5q0 79 -3.5 131.5t-13 93t-23 62.5t-38.5 35.5t-54 17.5t-74 4q-53 0 -84 -7t-56.5 -26t-37 -59t-17.5 -99t-6 -153zM427.5 -21.5q0.5 0.5 2.5 5.5l1057 1507q16 12 26 4l89 -41q6 -5 7 -13t-3 -14l-1059 -1505q-5 -8 -13 -9t-14 5l-78 53q-4 3 -9.5 5 t-5 2.5zM1253 440q0 178 35.5 276t108.5 136.5t205 38.5q133 0 206 -38.5t108.5 -136t35.5 -276.5q0 -181 -34.5 -282t-109 -144t-206.5 -43q-130 0 -204.5 43t-109.5 144.5t-35 281.5zM1399 440q0 -150 17 -224t58 -104t125 -30q65 0 103.5 14.5t62.5 56t32.5 108 t8.5 179.5q0 94 -6 153t-18 99t-38 59t-58.5 26t-86.5 7q-53 0 -84 -7t-56 -26t-36.5 -59t-17.5 -99t-6 -153z" />
<glyph unicode="&#x26;" horiz-adv-x="1329" d="M123 383q0 177 60.5 271.5t217.5 142.5q-66 85 -94 157.5t-28 165.5q0 342 417 342q174 0 316 -47q16 -7 10 -26l-27 -89q-1 -7 -8 -10.5t-12 -1.5q-118 47 -277 47q-75 0 -119 -5t-76.5 -16t-46.5 -37t-20 -60t-6 -93q0 -98 25 -159t75 -123l369 -383l268 397q5 6 13 7 t14 -3l74 -55q14 -10 4 -27l-287 -409l299 -308q10 -16 -4 -26l-74 -62q-15 -11 -26 4l-271 281l-108 -154q-53 -75 -117.5 -104t-183.5 -29q-194 0 -285.5 93.5t-91.5 318.5zM281 410q0 -72 3 -119t13 -83.5t24 -56.5t40.5 -32.5t57 -16.5t79.5 -4q91 0 136 19t75 61 l114 170l-362 377q-108 -38 -144 -101t-36 -214z" />
<glyph unicode="'" horiz-adv-x="354" d="M102 1409q0 7 5.5 12.5t13.5 5.5h112q8 0 13.5 -5.5t5.5 -12.5l-25 -434q0 -8 -5.5 -13.5t-12.5 -5.5h-68q-7 0 -12.5 5.5t-5.5 13.5z" />
<glyph unicode="(" horiz-adv-x="614" d="M139 510q0 805 389 1028q21 12 29 -4l49 -74q7 -14 -6 -20q-64 -28 -118 -93.5t-99.5 -174t-71.5 -278.5t-26 -384t26 -384t71.5 -278.5t99.5 -174t118 -93.5q13 -6 6 -20l-49 -74q-8 -16 -29 -4q-389 223 -389 1028z" />
<glyph unicode=")" horiz-adv-x="612" d="M6 -440q-7 14 6 20q64 28 118.5 93.5t100 174t71.5 278.5t26 384t-26 384t-71.5 278.5t-100 174t-118.5 93.5q-13 6 -6 20l49 74q8 16 29 4q389 -223 389 -1028t-389 -1028q-21 -12 -29 4z" />
<glyph unicode="*" horiz-adv-x="860" d="M61 1077v78q0 14 15 14h262l-131 228q-7 11 4 18l68 39q12 8 20 -4l129 -227l131 227q10 13 23 6l65 -37q12 -6 6 -22l-131 -228h262q17 0 17 -14v-78q0 -14 -17 -14h-262l131 -227q10 -14 -4 -21l-65 -39q-13 -7 -23 6l-131 226l-129 -226q-9 -13 -20 -6l-68 39 q-12 8 -6 21l129 227h-260q-15 0 -15 14z" />
<glyph unicode="+" horiz-adv-x="1114" d="M109 520v88q0 8 5.5 13.5t12.5 5.5h369v366q0 8 5.5 13.5t12.5 5.5h88q8 0 13.5 -6t5.5 -13v-366h366q7 0 13 -5.5t6 -13.5v-88q0 -7 -5.5 -12.5t-13.5 -5.5h-366v-369q0 -7 -5.5 -12.5t-13.5 -5.5h-88q-8 0 -13 5.5t-5 12.5v369h-369q-7 0 -12.5 5t-5.5 13z" />
<glyph unicode="," horiz-adv-x="524" d="M150 -262l53 422q1 10 9.5 16t18.5 6l99 -16q13 0 19 -9.5t3 -19.5l-108 -399q-3 -8 -10.5 -15.5t-14.5 -7.5h-53q-8 0 -12.5 6.5t-3.5 16.5z" />
<glyph unicode="-" horiz-adv-x="663" d="M109 520v88q0 8 5.5 13.5t12.5 5.5h410q7 0 12.5 -5.5t5.5 -13.5v-88q0 -8 -5.5 -13t-12.5 -5h-410q-7 0 -12.5 5t-5.5 13z" />
<glyph unicode="." horiz-adv-x="524" d="M166 90q0 60 17.5 77t76.5 17q63 0 80.5 -17t17.5 -77q0 -65 -18 -84.5t-80 -19.5q-58 0 -76 19.5t-18 84.5z" />
<glyph unicode="/" horiz-adv-x="940" d="M4 -133l813 1653q11 15 25 8l88 -43q6 -3 8.5 -11t-0.5 -14l-815 -1650q-3 -8 -11 -10.5t-14 1.5l-86 41q-18 11 -8 25z" />
<glyph unicode="0" d="M102 733q0 175 16 298t49 208t90 133.5t130.5 69t179.5 20.5q88 0 153.5 -13.5t119 -47t88.5 -87t59 -135.5t34.5 -191t10.5 -255q0 -295 -45.5 -459t-144.5 -233.5t-275 -69.5q-105 0 -179.5 23.5t-130.5 76t-89.5 142t-49.5 216.5t-16 304zM252 733q0 -129 5.5 -220.5 t19.5 -165t36 -119t58 -76t82.5 -42.5t111.5 -12q80 0 133 19t90.5 60t57.5 118t28.5 179.5t8.5 258.5q0 136 -5 227.5t-20 163t-36 111.5t-59 65.5t-83.5 34t-114.5 8.5q-57 0 -97.5 -6.5t-75.5 -22.5t-57 -46.5t-39.5 -74t-26 -111t-13 -150.5t-4.5 -199z" />
<glyph unicode="1" d="M223 1210q2 8 8 11l349 196q17 10 41 10h106q7 0 12.5 -5.5t5.5 -12.5v-1391q0 -8 -5.5 -13t-12.5 -5h-109q-8 0 -13 5t-5 13v1274l-309 -176q-16 -9 -27 6l-39 74q-4 6 -2 14z" />
<glyph unicode="2" d="M106 18v72q0 24 15 39l414 387q168 156 213 210q69 81 86 169q12 59 12 184q0 67 -7.5 108t-26 72.5t-56.5 46.5t-92 22t-140 7q-176 0 -317 -51q-5 -2 -12.5 1.5t-8.5 10.5l-26 88q-7 20 10 27q172 51 356 51q126 0 211.5 -18.5t144.5 -62t86 -116.5t27 -182 q0 -79 -3 -126.5t-17.5 -102t-35.5 -92.5t-66 -93.5t-100 -109.5t-146 -137l-328 -299h688q7 0 13 -5.5t6 -13.5v-86q0 -7 -5.5 -12.5t-13.5 -5.5h-862q-8 0 -13.5 5.5t-5.5 12.5z" />
<glyph unicode="3" d="M102 49l27 88q1 7 8.5 11t12.5 2q144 -52 317 -52q85 0 139 3.5t97.5 17t65.5 32t37 55t19 79.5t4 112q0 68 -4 110.5t-17.5 79t-34.5 55.5t-60.5 32.5t-90 17.5t-128.5 4h-164q-8 0 -13.5 6t-5.5 13v86q0 7 5.5 12.5t13.5 5.5h164q104 0 163.5 11.5t94 45.5t45 83 t10.5 137q0 65 -7 103t-24.5 68t-56 43.5t-94 20t-146.5 6.5q-187 0 -336 -47q-5 -2 -12 2t-8 11l-21 86q-6 19 11 26q158 47 366 47q143 0 237.5 -21.5t147.5 -67.5t73.5 -107t20.5 -152q0 -69 -11.5 -123.5t-39 -103.5t-81 -80t-130.5 -39q291 -15 291 -375 q0 -237 -115 -329.5t-403 -92.5q-181 0 -356 52q-17 7 -11 26z" />
<glyph unicode="4" d="M59 401v76q0 14 15 37l602 895q14 18 35 18h170q7 0 12.5 -5.5t5.5 -12.5v-913h188q7 0 13 -6t6 -13v-76q0 -7 -5.5 -12.5t-13.5 -5.5h-188v-365q0 -8 -5.5 -13t-12.5 -5h-109q-8 0 -13 5t-5 13v365h-676q-8 0 -13.5 5.5t-5.5 12.5zM207 496h547v733l6 104l-58 -104z" />
<glyph unicode="5" d="M127 49l27 88q1 7 8 11t12 2q150 -54 299 -54q67 0 115 2t89 9t67 16.5t46.5 28t31 38t17.5 53.5t9 68.5t2 87.5q0 73 -3 115.5t-17 80t-33 54t-61.5 29t-92.5 15.5t-135 3h-309q-15 0 -26 9t-11 22v674q0 10 9 18t19 8h742q8 0 13 -5.5t5 -12.5v-86q0 -7 -5 -12.5 t-13 -5.5h-627v-486h203q144 0 236.5 -19t153 -66t85.5 -122.5t25 -193.5q0 -127 -31.5 -213t-99.5 -138t-165.5 -74t-238.5 -22q-161 0 -336 52q-16 7 -10 26z" />
<glyph unicode="6" d="M100 723q0 149 10 257.5t35 193t62.5 138t96.5 88t132.5 48.5t175.5 14q205 0 363 -47q16 -7 10 -26l-20 -86q-1 -7 -8.5 -11t-12.5 -2q-149 47 -332 47q-76 0 -128.5 -8.5t-94 -32t-66.5 -59.5t-41 -96t-22 -135.5t-6 -184.5v-94q128 135 381 135q233 0 330.5 -104.5 t97.5 -339.5q0 -237 -112.5 -342t-377.5 -105q-74 0 -132 8t-106 27.5t-82.5 48t-61.5 73.5t-44 100t-27.5 131.5t-15 163t-4.5 200.5zM254 668q1 -103 4 -179t12.5 -137t19.5 -101.5t31 -70t41 -45.5t55.5 -25t69 -11.5t86.5 -2.5q76 0 126 4t89.5 17.5t60 32.5t34.5 56 t18 80.5t4 112.5q0 80 -3.5 129t-16.5 90t-32.5 61.5t-57.5 35t-84.5 18.5t-120.5 4q-91 0 -184 -18t-152 -51z" />
<glyph unicode="7" horiz-adv-x="1140" d="M76 1325v82q0 20 20 20h942q21 0 21 -20v-29q0 -21 -12 -45l-611 -1329q-7 -20 -26 -12l-105 26q-19 6 -12 27l588 1260h-785q-20 0 -20 20z" />
<glyph unicode="8" d="M80 381q0 86 14.5 149.5t50 117t103 83.5t166.5 37q-97 9 -161 38t-97 78t-45.5 105t-12.5 135q0 170 111 254t358 84t359 -84t112 -254q0 -63 -6.5 -108.5t-26 -91t-53.5 -75t-91.5 -50.5t-137.5 -27q82 -6 142 -28.5t96.5 -55.5t57.5 -83t28.5 -102t7.5 -122 q0 -225 -115.5 -317.5t-372.5 -92.5q-256 0 -371.5 92.5t-115.5 317.5zM238 389q0 -71 4 -114.5t18.5 -79t34 -53t60.5 -29t87.5 -14.5t124.5 -3t124.5 3t88 14.5t61.5 29t35 52.5t19 79.5t4 114.5q0 68 -4.5 112.5t-18 83t-36 60t-61 37.5t-90.5 21.5t-128 5.5 q-72 0 -121.5 -5.5t-87 -21.5t-58.5 -37.5t-34.5 -60t-17.5 -83t-4 -112.5zM250 1118q0 -64 4.5 -105.5t17.5 -77t34.5 -55.5t59 -33.5t86.5 -18.5t121 -5q83 0 135 8t89 26t55 54t25.5 83.5t7.5 123.5q0 52 -3.5 84t-17 59t-32.5 40t-58 22t-85 11.5t-122 2.5t-122 -2.5 t-84.5 -11.5t-57.5 -22t-32.5 -40t-17 -59t-3.5 -84z" />
<glyph unicode="9" d="M90 1016q0 237 112.5 341.5t377.5 104.5q116 0 199.5 -20.5t137.5 -58t85.5 -100t44 -137t12.5 -177.5q0 -202 -49 -335t-138 -231l-399 -432q-5 -6 -13 -7t-14 3l-94 53q-14 11 -2 27l416 453q35 38 56 65t43.5 68t29.5 80q-128 -135 -371 -135q-236 0 -335 102t-99 336 zM248 1034q0 -78 3 -125t16 -88t32 -61t57.5 -35t87 -19t125.5 -4q90 0 181 18.5t151 51.5q6 49 6 195q0 89 -4 146t-19.5 101t-35 66t-60.5 36t-86 17.5t-122 3.5q-76 0 -126 -4t-89.5 -17.5t-60 -32.5t-34.5 -56t-18 -80.5t-4 -112.5z" />
<glyph unicode=":" horiz-adv-x="524" d="M166 90q0 60 17.5 77t76.5 17q63 0 80.5 -17t17.5 -77q0 -65 -18 -84.5t-80 -19.5q-58 0 -76 19.5t-18 84.5zM166 969q0 60 17.5 77t76.5 17q63 0 80.5 -17t17.5 -77q0 -65 -18 -85t-80 -20q-58 0 -76 20t-18 85z" />
<glyph unicode=";" horiz-adv-x="524" d="M150 -262l53 422q1 10 9.5 16t18.5 6l99 -16q13 0 19 -9.5t3 -19.5l-108 -399q-3 -8 -10.5 -15.5t-14.5 -7.5h-53q-8 0 -12.5 6.5t-3.5 16.5zM166 969q0 60 17.5 77t76.5 17q63 0 80.5 -17t17.5 -77q0 -65 -18 -85t-80 -20q-58 0 -76 20t-18 85z" />
<glyph unicode="&#x3c;" horiz-adv-x="1024" d="M102 711v43q0 14 11 22l721 574q11 15 26 4l53 -64q6 -5 7 -13t-5 -13l-643 -531l643 -534q6 -5 5 -13.5t-7 -13.5l-53 -63q-15 -11 -26 4l-721 573q-11 8 -11 25z" />
<glyph unicode="=" horiz-adv-x="1224" d="M164 397v88q0 8 5.5 13.5t12.5 5.5h860q8 0 13.5 -6t5.5 -13v-88q0 -7 -5.5 -12.5t-13.5 -5.5h-860q-8 0 -13 5.5t-5 12.5zM164 856v88q0 8 5.5 13.5t12.5 5.5h860q8 0 13.5 -5.5t5.5 -13.5v-88q0 -7 -5.5 -12.5t-13.5 -5.5h-860q-8 0 -13 5t-5 13z" />
<glyph unicode="&#x3e;" horiz-adv-x="1024" d="M104 185.5q-1 8.5 5 13.5l643 530l-643 535q-6 5 -5 13t7 13l53 64q15 11 26 -4l721 -574q11 -8 11 -24v-43q0 -15 -11 -23l-721 -573q-11 -15 -26 -4l-53 63q-6 5 -7 13.5z" />
<glyph unicode="?" horiz-adv-x="847" d="M86 1393q-6 19 10 26q152 43 293 43q212 0 305.5 -86t93.5 -303q0 -147 -44.5 -247.5t-145.5 -207.5l-217 -227q-5 -6 -13 -7t-14 3l-73 59q-14 11 -2 27l219 236q56 60 80 89.5t40 73.5t17.5 79t1.5 122q0 61 -3 99.5t-14 69.5t-26 47t-45 26t-64 13t-90 3 q-142 0 -264 -47q-5 -2 -12 1.5t-8 10.5zM270 90q0 59 18 76.5t77 17.5q63 0 80.5 -17t17.5 -77q0 -65 -18 -84.5t-80 -19.5q-59 0 -77 20t-18 84z" />
<glyph unicode="@" horiz-adv-x="1740" d="M129 463q0 146 12.5 257.5t36 196.5t65 144.5t92 98.5t124.5 61t154.5 30.5t189.5 8.5q199 0 312 -44.5t162.5 -142.5t49.5 -270v-617q0 -8 -5.5 -13t-12.5 -5h-97q-8 0 -13 5t-5 13v88q-34 -49 -119.5 -92t-161.5 -43q-149 0 -233 37t-116 106.5t-32 188.5t32 188.5 t116 106.5t233 37q76 0 161.5 -43t119.5 -92v135q0 106 -15 167.5t-60.5 101t-117.5 52.5t-196 13q-119 0 -189.5 -6.5t-137.5 -31t-100 -66t-59.5 -120t-34.5 -184.5t-8 -266q0 -110 4.5 -189t19 -146.5t34 -111.5t56 -78.5t77.5 -53t107 -31t136.5 -16t172.5 -3.5 q114 0 192.5 4t151 18t118 34.5t85 58.5t60 85.5t35.5 120.5t20 157.5t5 203.5q0 8 6 13.5t13 5.5h92q7 0 12.5 -5.5t5.5 -13.5q0 -118 -9.5 -213.5t-26.5 -173t-46.5 -137t-65 -104t-87 -76t-107 -52.5t-130 -32.5t-151 -16t-175.5 -4.5q-147 0 -251.5 12.5t-192.5 45 t-143 86.5t-94 139.5t-55 200t-16 272.5zM674 471q0 -86 19.5 -127.5t73.5 -59.5t167 -18q136 0 260 68v274q-124 68 -260 68q-113 0 -167 -18t-73.5 -59.5t-19.5 -127.5z" />
<glyph unicode="A" horiz-adv-x="1157" d="M23 31l456 1378q7 18 21 18h159q14 0 21 -18l455 -1378q1 -3 1 -6q0 -4 -2 -8q-4 -7 -12 -9l-98 -24q-2 -1 -5 -1q-4 0 -9 2q-8 3 -9 9l-143 436h-567l-139 -436q-1 -6 -9 -9q-5 -2 -9 -2q-3 0 -5 1l-94 24q-7 2 -11 9q-2 4 -2 8q0 3 1 6zM328 547h493l-207 635l-41 161 l-41 -161z" />
<glyph unicode="B" horiz-adv-x="1263" d="M184 18v1391q0 7 5.5 12.5t13.5 5.5h559q83 0 144.5 -19t98.5 -49.5t59.5 -76.5t30 -92.5t7.5 -104.5q0 -56 -5 -96t-22 -83t-46.5 -70.5t-82.5 -48t-127 -27.5q79 -3 137 -24t93 -53t56 -79t28.5 -95t7.5 -110q0 -198 -92 -298.5t-265 -100.5h-581q-8 0 -13.5 5.5 t-5.5 12.5zM330 123h452q49 0 80 6.5t56 23t38.5 48t20 80t6.5 120.5q0 119 -21 183t-64.5 88t-123.5 24h-444v-573zM330 819h432q109 0 148.5 53t39.5 195q0 80 -7.5 125t-31 71.5t-56.5 34t-93 7.5h-432v-486z" />
<glyph unicode="C" horiz-adv-x="1130" d="M129 727q0 151 14 263.5t46 194.5t77 135t114.5 85t150 44.5t190.5 12.5q184 0 356 -51q12 -5 12 -16q0 -5 -2 -11l-26 -88q-1 -7 -8.5 -10.5t-12.5 -1.5q-141 51 -317 51q-98 0 -158 -6.5t-113.5 -30.5t-81 -62t-48 -109.5t-27 -164.5t-6.5 -235q0 -109 3.5 -188.5 t14 -146.5t24.5 -111t40.5 -78.5t55.5 -53t76.5 -30.5t97 -15.5t122.5 -3.5q178 0 317 50q5 2 12.5 -2t8.5 -11l26 -88q2 -5 2 -9q0 -11 -12 -17q-175 -52 -356 -52q-110 0 -190.5 12.5t-150 45t-114.5 87t-77 139t-46 200.5t-14 272z" />
<glyph unicode="D" horiz-adv-x="1310" d="M184 18v1391q0 7 5.5 12.5t13.5 5.5h377q114 0 199 -14t154 -47.5t115 -86t76.5 -132.5t44 -185t13.5 -245t-13.5 -245t-44 -186t-76 -134.5t-114.5 -88t-154.5 -49t-199.5 -14.5h-377q-8 0 -13.5 5.5t-5.5 12.5zM330 123h250q98 0 164.5 9.5t118.5 36.5t81.5 67 t48.5 110.5t25 156t6 214.5q0 102 -3 174.5t-13 135.5t-24 104t-40 74t-56.5 51t-78.5 30t-100.5 15.5t-128.5 3.5h-250v-1182z" />
<glyph unicode="E" horiz-adv-x="1079" d="M184 18v1391q0 7 5.5 12.5t13.5 5.5h796q8 0 13.5 -5.5t5.5 -12.5v-86q0 -7 -5.5 -12.5t-13.5 -5.5h-669v-486h547q7 0 12.5 -5.5t5.5 -12.5v-86q0 -8 -5.5 -13.5t-12.5 -5.5h-547v-573h669q7 0 13 -5.5t6 -13.5v-86q0 -7 -5.5 -12.5t-13.5 -5.5h-796q-8 0 -13.5 5.5 t-5.5 12.5z" />
<glyph unicode="F" horiz-adv-x="1048" d="M184 18v1391q0 7 5.5 12.5t13.5 5.5h796q8 0 13.5 -5.5t5.5 -12.5v-86q0 -7 -5.5 -12.5t-13.5 -5.5h-669v-547h547q7 0 12.5 -5.5t5.5 -13.5v-86q0 -7 -5.5 -12.5t-12.5 -5.5h-547v-617q0 -7 -5.5 -12.5t-13.5 -5.5h-108q-8 0 -13.5 5.5t-5.5 12.5z" />
<glyph unicode="G" horiz-adv-x="1294" d="M129 727q0 151 14 263.5t46 194.5t77 135t114.5 85t150 44.5t190.5 12.5q225 0 397 -51q12 -5 12 -16q0 -5 -2 -11l-26 -88q-1 -7 -8.5 -10.5t-12.5 -1.5q-62 22 -166.5 36.5t-191.5 14.5q-98 0 -158 -6.5t-113.5 -30.5t-81 -62t-48 -109.5t-27 -164.5t-6.5 -235 q0 -109 3.5 -189t14 -147t24.5 -111t40.5 -78.5t56 -53.5t76.5 -31t96.5 -15.5t122.5 -3.5q145 0 260 23v612q0 8 5.5 13.5t12.5 5.5h109q7 0 12.5 -5.5t5.5 -13.5v-682q0 -21 -18 -28q-175 -52 -389 -52q-110 0 -190.5 12.5t-150 45t-114.5 87t-77 139t-46 200.5t-14 272z " />
<glyph unicode="H" horiz-adv-x="1331" d="M184 18v1391q0 7 5.5 12.5t13.5 5.5h108q8 0 13.5 -5.5t5.5 -12.5v-588h671v588q0 7 5.5 12.5t13.5 5.5h108q8 0 13.5 -5.5t5.5 -12.5v-1391q0 -7 -5.5 -12.5t-13.5 -5.5h-108q-8 0 -13.5 5.5t-5.5 12.5v680h-671v-680q0 -7 -5.5 -12.5t-13.5 -5.5h-108q-8 0 -13.5 5.5 t-5.5 12.5z" />
<glyph unicode="I" horiz-adv-x="514" d="M184 18v1391q0 7 5.5 12.5t13.5 5.5h108q8 0 13.5 -5.5t5.5 -12.5v-1391q0 -7 -5.5 -12.5t-13.5 -5.5h-108q-8 0 -13.5 5.5t-5.5 12.5z" />
<glyph unicode="J" horiz-adv-x="872" d="M0 49l27 88q1 7 8 11t12 2q53 -22 127 -36t129 -14q77 0 120.5 10t72 43t38 88t9.5 152v1016q0 7 5.5 12.5t12.5 5.5h109q8 0 13 -5.5t5 -12.5v-1016q0 -217 -102 -319.5t-281 -102.5q-153 0 -295 52q-12 5 -12 17q0 4 2 9z" />
<glyph unicode="K" horiz-adv-x="1146" d="M184 18v1391q0 7 5.5 12.5t13.5 5.5h108q8 0 13.5 -5.5t5.5 -12.5v-1391q0 -7 -5.5 -12.5t-13.5 -5.5h-108q-8 0 -13.5 5.5t-5.5 12.5zM334 741l606 709q4 6 14 8h4q7 0 11 -4l80 -59q13 -13 4 -29l-545 -614l571 -691q4 -7 4 -12q0 -8 -8 -14l-82 -62q-5 -4 -11 -4 q-2 1 -4 1q-9 2 -13 7z" />
<glyph unicode="L" horiz-adv-x="956" d="M184 18v1391q0 7 5.5 12.5t13.5 5.5h108q8 0 13.5 -5.5t5.5 -12.5v-1286h608q7 0 12.5 -5.5t5.5 -13.5v-86q0 -8 -5 -13t-13 -5h-735q-8 0 -13.5 5.5t-5.5 12.5z" />
<glyph unicode="M" horiz-adv-x="1560" d="M184 18v1391q7 18 21 18h180q25 0 31 -18l338 -1036l34 -142l35 142l322 1036q6 18 31 18h180q13 0 20 -18v-1391q0 -8 -5 -13t-13 -5h-109q-7 0 -12.5 5t-5.5 13v1082l8 184l-47 -182l-322 -975q-7 -18 -20 -18h-135q-14 0 -21 18l-325 975l-47 182l8 -184v-1082 q0 -7 -5.5 -12.5t-13.5 -5.5h-108q-8 0 -13.5 5.5t-5.5 12.5z" />
<glyph unicode="N" horiz-adv-x="1333" d="M184 18v1391q7 18 21 18h147q20 0 31 -18l561 -1090l68 -172l-8 181v1081q0 7 5 12.5t13 5.5h108q8 0 13.5 -5.5t5.5 -12.5v-1391q-7 -18 -21 -18h-147q-20 0 -31 18l-561 1090l-70 156l11 -164v-1082q0 -7 -5.5 -12.5t-13.5 -5.5h-108q-8 0 -13.5 5.5t-5.5 12.5z" />
<glyph unicode="O" horiz-adv-x="1359" d="M129 727q0 179 23.5 307.5t66 211t112.5 131t152.5 67t196.5 18.5t196.5 -18.5t152.5 -67t112.5 -131t66 -211t23.5 -307.5q0 -155 -15.5 -272.5t-48 -200.5t-76.5 -138.5t-108.5 -87t-136 -44.5t-166.5 -13t-166.5 13t-136 44.5t-108.5 87t-76.5 138.5t-48 200.5 t-15.5 272.5zM289 727q0 -107 4.5 -188.5t15.5 -146t25 -109.5t39.5 -77.5t52.5 -51.5t69 -30t84 -14.5t103 -3.5q60 0 101.5 3.5t83 14.5t68.5 30t52 51.5t39 77.5t25 109.5t15.5 146t4.5 188.5q0 104 -4.5 182.5t-15.5 141t-25 106.5t-39 75.5t-52 50t-68.5 29t-83 14 t-101.5 3.5q-61 0 -103 -3.5t-84 -14t-69 -29t-52.5 -50t-39.5 -75.5t-25 -106.5t-15.5 -141t-4.5 -182.5z" />
<glyph unicode="P" horiz-adv-x="1189" d="M184 18v1391q0 7 5.5 12.5t13.5 5.5h567q173 0 265.5 -103.5t92.5 -301.5q0 -202 -82.5 -308t-275.5 -106h-440v-590q0 -7 -5.5 -12.5t-13.5 -5.5h-108q-8 0 -13.5 5.5t-5.5 12.5zM330 731h440q77 0 118.5 22.5t62 85.5t20.5 183q0 116 -19.5 176t-61 83.5t-120.5 23.5 h-440v-574z" />
<glyph unicode="Q" horiz-adv-x="1359" d="M129 727q0 179 23.5 307.5t66 211t112.5 131t152.5 67t196.5 18.5t196.5 -18.5t152.5 -67t112.5 -131t66 -211t23.5 -307.5q0 -193 -24 -328.5t-74.5 -221t-120 -130t-168.5 -61.5l272 -318q10 -16 -4 -26l-86 -64q-5 -3 -11 -3h-3q-8 1 -13 7l-325 389q-113 1 -194 20 t-150.5 69t-112 134.5t-65.5 217t-23 315.5zM289 727q0 -107 4.5 -188.5t15.5 -146t25 -109.5t39.5 -77.5t52.5 -51.5t69 -30t84 -14.5t103 -3.5q60 0 101.5 3.5t83 14.5t68.5 30t52 51.5t39 77.5t25 109.5t15.5 146t4.5 188.5q0 104 -4.5 182.5t-15.5 141t-25 106.5 t-39 75.5t-52 50t-68.5 29t-83 14t-101.5 3.5q-61 0 -103 -3.5t-84 -14t-69 -29t-52.5 -50t-39.5 -75.5t-25 -106.5t-15.5 -141t-4.5 -182.5z" />
<glyph unicode="R" horiz-adv-x="1263" d="M184 18v1391q0 7 5.5 12.5t13.5 5.5h567q173 0 265.5 -103.5t92.5 -301.5q0 -186 -78 -292t-239 -118l356 -561q2 -4 2 -9q0 -10 -10 -17l-88 -50q-5 -2 -10 -2q-3 1 -7 1q-9 2 -12 10l-389 624h-323v-590q0 -7 -5.5 -12.5t-13.5 -5.5h-108q-8 0 -13.5 5.5t-5.5 12.5z M330 731h440q60 0 94.5 9.5t60.5 40.5t36 88.5t10 152.5q0 120 -19.5 180t-60.5 81.5t-121 21.5h-440v-574z" />
<glyph unicode="S" horiz-adv-x="1193" d="M131 1044q0 226 117 322t381 96q192 0 364 -51q18 -7 11 -27l-27 -88q-1 -7 -8.5 -10.5t-12.5 -1.5q-141 51 -325 51q-80 0 -135 -5t-93.5 -20.5t-60.5 -34t-34 -54.5t-15.5 -73.5t-3.5 -98.5q0 -41 1.5 -68.5t9.5 -52.5t15.5 -39.5t28.5 -28.5t39.5 -21t57.5 -14.5 t73.5 -11.5t95.5 -10q132 -13 218.5 -41.5t139 -80t74 -121t21.5 -171.5q0 -222 -128.5 -320t-395.5 -98q-190 0 -365 52q-16 7 -10 26l26 88q1 7 8.5 11t12.5 2q144 -52 326 -52q119 0 190 13t112 49t54.5 87.5t13.5 139.5q0 66 -6.5 105t-24 71.5t-54.5 50.5t-91.5 30 t-142.5 20q-263 25 -360 105t-97 275z" />
<glyph unicode="T" horiz-adv-x="1021" d="M0 1323v86q0 7 5 12.5t13 5.5h986q8 0 13 -5.5t5 -12.5v-86q0 -7 -5 -12.5t-13 -5.5h-420v-1287q0 -7 -5.5 -12.5t-13.5 -5.5h-108q-8 0 -13.5 5.5t-5.5 12.5v1287h-420q-8 0 -13 5.5t-5 12.5z" />
<glyph unicode="U" horiz-adv-x="1306" d="M164 506v903q0 7 5 12.5t13 5.5h109q7 0 12.5 -5.5t5.5 -12.5v-903q0 -78 4 -131t12 -98.5t26 -73t42 -48t63 -30.5t85 -14.5t114 -4.5q78 0 128 5t91 22.5t63 43t36.5 73.5t19 106.5t4.5 149.5v903q0 7 5.5 12.5t13.5 5.5h108q8 0 13.5 -5.5t5.5 -12.5v-903 q0 -288 -111 -411.5t-379 -123.5t-378.5 123t-110.5 412z" />
<glyph unicode="V" horiz-adv-x="1157" d="M23 1397q-1 3 -1 6t2 7q4 6 11 9l98 25q2 1 5 1q4 0 9 -2q8 -3 9 -9l393 -1188l35 -142l34 142l388 1188q0 6 8 9q4 2 9 2q3 0 5 -1l94 -25q8 -3 12 -9q2 -4 2 -7t-1 -6l-463 -1379q-7 -18 -21 -18h-147q-14 0 -21 18z" />
<glyph unicode="W" horiz-adv-x="1761" d="M43 1397q-1 3 -1 6t2 7q4 6 11 9l99 25q2 1 5 1q5 0 9 -2q8 -3 8 -9l246 -1162l35 -163l35 163l299 1137q7 18 20 18h147q14 0 21 -18l281 -1137l34 -163l35 163l260 1162q1 6 9 9q5 2 9 2q3 0 5 -1l94 -25q8 -3 12 -9q2 -4 1 -7q0 -3 -1 -6l-336 -1379q-7 -18 -20 -18 h-148q-13 0 -20 18l-281 1131l-34 164l-35 -164l-299 -1131q-4 -18 -21 -18h-147q-14 0 -21 18z" />
<glyph unicode="X" horiz-adv-x="1165" d="M49 57l457 666l-445 649q-4 6 -2.5 15t7.5 14l84 51q4 4 12 4h2q9 0 12 -6l359 -535l47 -92l47 92l360 535q3 6 13 6h2q8 0 12 -4l84 -51q6 -4 7.5 -13.5t-3.5 -15.5l-447 -649l459 -666q4 -7 4 -13q0 -8 -8 -15l-82 -52q-4 -3 -11 -3h-3q-10 1 -15 6l-362 534l-57 107 l-56 -107l-362 -534q-6 -5 -14 -6h-3q-6 0 -10 3l-84 52q-8 6 -8 15q0 6 4 13z" />
<glyph unicode="Y" horiz-adv-x="1116" d="M25 1372q-5 8 -5 14q0 9 9 15l82 51q4 4 12 4h2q9 -1 14 -6l365 -541l57 -110l55 110l361 541q5 5 13 6h2q8 0 12 -4l83 -51q9 -7 9 -16q0 -6 -4 -13l-459 -674v-680q0 -7 -5.5 -12.5t-13.5 -5.5h-108q-8 0 -13.5 5.5t-5.5 12.5v680z" />
<glyph unicode="Z" horiz-adv-x="1140" d="M41 20v23q0 23 16 43l836 1219h-799q-20 0 -20 20v82q0 20 20 20h983q21 0 21 -20v-23q0 -18 -15 -43l-831 -1218h827q9 0 15 -6t6 -15v-82q0 -20 -21 -20h-1018q-20 0 -20 20z" />
<glyph unicode="[" horiz-adv-x="706" d="M184 -514v2042q0 7 5.5 12.5t13.5 5.5h444q8 0 13.5 -5.5t5.5 -12.5v-86q0 -8 -6 -13.5t-13 -5.5h-317v-1833h317q8 0 13.5 -5.5t5.5 -12.5v-86q0 -7 -5.5 -12.5t-13.5 -5.5h-444q-8 0 -13.5 5.5t-5.5 12.5z" />
<glyph unicode="\" horiz-adv-x="874" d="M2.5 1418.5q3.5 8.5 13.5 8.5h111q22 0 33 -22l710 -1378q5 -9 1.5 -18t-13.5 -9h-110q-22 0 -33 23l-711 1378q-5 9 -1.5 17.5z" />
<glyph unicode="]" horiz-adv-x="706" d="M41 -428q0 8 5.5 13t12.5 5h318v1833h-318q-7 0 -12.5 5.5t-5.5 13.5v86q0 8 5.5 13t12.5 5h445q8 0 13 -5t5 -13v-2042q0 -8 -5 -13t-13 -5h-445q-7 0 -12.5 5t-5.5 13v86z" />
<glyph unicode="^" horiz-adv-x="980" d="M63 596l334 813q7 18 21 18h147q14 0 21 -18l332 -813q3 -7 -1 -14t-12 -9l-94 -28q-6 -2 -14 1t-9 9l-268 662l-35 114l-34 -114l-263 -662q-1 -6 -8.5 -9t-13.5 -1l-90 28q-8 2 -12 9t-1 14z" />
<glyph unicode="_" horiz-adv-x="897" d="M0 -170q0 8 5 13t13 5h861q7 0 12.5 -5t5.5 -13v-88q0 -8 -5.5 -13t-12.5 -5h-861q-8 0 -13 5t-5 13v88z" />
<glyph unicode="`" horiz-adv-x="1011" d="M269 1395q1 11 10 14l81 43q21 8 35 -6l213 -236q5 -6 4 -14.5t-8 -11.5l-55 -37q-17 -7 -29 2l-244 229q-8 6 -7 17z" />
<glyph unicode="a" horiz-adv-x="1069" d="M123 303q0 119 32 188.5t116 106.5t233 37q76 0 161 -43t119 -92v135q0 97 -10.5 152.5t-42 90.5t-80.5 46.5t-135 11.5q-61 0 -138 -12t-130 -31q-5 -2 -12.5 1.5t-8.5 10.5l-24 86q-7 20 10 27q140 45 303 45q151 0 235.5 -36.5t125.5 -129.5t41 -262v-508l28 -94 q2 -5 2 -9q0 -11 -14 -16l-94 -22q-6 -3 -13.5 0.5t-9.5 9.5l-33 110q-34 -49 -119 -92t-161 -43q-149 0 -233 37t-116 106.5t-32 188.5zM264 303q0 -86 19.5 -127.5t73.5 -59.5t167 -18q136 0 260 68v274q-124 68 -260 68q-113 0 -167 -18t-73.5 -59.5t-19.5 -127.5z" />
<glyph unicode="b" horiz-adv-x="1095" d="M143 18v1426q0 7 5.5 12.5t13.5 5.5h96q8 0 13 -5t5 -13v-516q46 60 133 97.5t169 37.5q109 0 181 -26t121.5 -89.5t71 -168t21.5 -263.5q0 -211 -41.5 -330t-125 -167t-228.5 -48q-82 0 -169 37.5t-133 97.5v-88q0 -8 -5 -13t-13 -5h-96q-8 0 -13.5 5.5t-5.5 12.5z M276 166q124 -68 261 -68q67 0 108 4.5t76.5 21t53 41.5t30.5 75.5t16.5 113.5t3.5 162q0 100 -3.5 163.5t-16.5 114t-30.5 76t-53.5 42t-76 20.5t-108 4q-137 0 -261 -68v-702z" />
<glyph unicode="c" horiz-adv-x="899" d="M123 522q0 160 22.5 263t75.5 165.5t133 87.5t203 25q68 0 148.5 -12t132.5 -31q12 -5 12 -16q0 -5 -2 -11l-25 -88q-1 -7 -8 -10.5t-12 -1.5q-105 43 -246 43q-65 0 -105.5 -4.5t-76 -21.5t-53.5 -43t-31 -75.5t-17 -112.5t-4 -161q0 -76 2 -130t9 -99.5t15.5 -74.5 t26.5 -51.5t36.5 -34t51 -19t64.5 -9.5t82 -2q141 0 246 43q5 2 12 -1.5t8 -10.5l25 -88q2 -6 2 -11q0 -11 -12 -16q-52 -19 -132.5 -31t-148.5 -12q-124 0 -204 26t-133 91t-75 169t-22 265z" />
<glyph unicode="d" horiz-adv-x="1095" d="M123 516q0 159 21.5 263.5t71 168t121.5 89.5t181 26q82 0 168.5 -37.5t132.5 -97.5v516q0 7 5.5 12.5t13.5 5.5h96q8 0 13 -5t5 -13v-1426q0 -8 -5 -13t-13 -5h-96q-8 0 -13.5 5.5t-5.5 12.5v88q-46 -60 -132.5 -97.5t-168.5 -37.5q-145 0 -228.5 48t-125 167t-41.5 330 zM270 516q0 -99 3.5 -162t16.5 -113t31 -75.5t53.5 -42t76.5 -21t108 -4.5q136 0 260 68v702q-124 68 -260 68q-50 0 -83.5 -2t-66 -10t-51.5 -20t-36.5 -35.5t-26 -52t-15 -74.5t-8.5 -98.5t-2 -127.5z" />
<glyph unicode="e" horiz-adv-x="1032" d="M123 522q0 207 44.5 325.5t133.5 167t240 48.5q75 0 129 -8.5t99.5 -31t74 -59.5t49 -95.5t29 -137t8.5 -186.5q0 -11 -9.5 -19t-19.5 -8h-637q0 -76 3 -130t10 -99.5t16 -74.5t28.5 -51.5t39.5 -34t55 -19t70 -9.5t89 -2q137 0 254 49q5 2 12.5 -1.5t8.5 -10.5l24 -88 q7 -20 -10 -27q-56 -22 -138 -35.5t-151 -13.5q-175 0 -271 50t-138.5 168t-42.5 333zM266 629h531q-2 70 -7 115.5t-17 83t-28.5 57.5t-47 33.5t-68 17.5t-94.5 4q-111 0 -163.5 -23t-76.5 -87t-29 -201z" />
<glyph unicode="f" horiz-adv-x="641" d="M41 940v76q0 8 5.5 13t12.5 5h123v96q0 349 295 349q92 0 199 -21q12 -5 12 -17q0 -4 -2 -9l-24 -89q-1 -7 -8.5 -10.5t-12.5 -1.5q-91 25 -164 25q-38 0 -62 -2.5t-43.5 -12.5t-29.5 -24t-16.5 -41.5t-8.5 -60t-2 -85.5v-96h310q7 0 12.5 -5t5.5 -13v-76q0 -8 -5.5 -13 t-12.5 -5h-310v-904q0 -8 -5.5 -13t-12.5 -5h-96q-8 0 -13.5 5.5t-5.5 12.5v904h-123q-7 0 -12.5 5t-5.5 13z" />
<glyph unicode="g" horiz-adv-x="1103" d="M98 -150q0 83 47 147t121 105q-61 22 -80.5 56.5t-19.5 85.5q0 79 102 145q-86 33 -122.5 105.5t-36.5 195.5q0 99 27 167t81.5 106.5t126 54.5t172.5 16h498q8 0 13 -5t5 -13v-76q0 -8 -5 -13t-13 -5h-209q60 -54 95.5 -119t35.5 -131q0 -169 -103.5 -244.5 t-316.5 -75.5q-127 0 -209 23q-10 -42 -10 -74q0 -29 3 -43.5t16 -30.5t41.5 -22t77.5 -10.5t126 -4.5q129 0 209.5 -11.5t138 -43t81.5 -86.5t24 -143q0 -171 -107.5 -246.5t-365.5 -75.5q-233 0 -338 61t-105 205zM250 -113q0 -103 61 -139.5t242 -36.5q179 0 245 40 t66 136q0 42 -3 67t-14.5 48t-30.5 34.5t-54 20.5t-82.5 12t-118.5 3q-174 0 -264 22q-22 -42 -34.5 -100t-12.5 -107zM252 700q0 -95 18 -140t73.5 -66t172.5 -21q94 0 147 9t82.5 36.5t37.5 65.5t8 110q0 134 -48 228h-221q-89 0 -139.5 -8.5t-81 -35t-40 -66.5t-9.5 -112 z" />
<glyph unicode="h" horiz-adv-x="1071" d="M143 18v1426q0 7 5.5 12.5t13.5 5.5h96q8 0 13 -5t5 -13v-516q52 58 134.5 96.5t181.5 38.5q98 0 160.5 -19t109 -71.5t66.5 -146.5t20 -242v-566q0 -8 -5 -13t-13 -5h-96q-8 0 -13.5 5.5t-5.5 12.5v539q0 69 -1.5 115.5t-7.5 88t-13 65.5t-24 45t-34.5 30t-50 15.5 t-64 8t-83.5 1.5q-155 0 -261 -58v-850q0 -8 -5 -13t-13 -5h-96q-8 0 -13.5 5.5t-5.5 12.5z" />
<glyph unicode="i" horiz-adv-x="421" d="M127 1346q0 51 16 64t68 13q50 0 67 -13.5t17 -63.5q0 -55 -17 -70.5t-67 -15.5q-51 0 -67.5 15.5t-16.5 70.5zM143 18v998q0 7 5.5 12.5t13.5 5.5h96q8 0 13 -5t5 -13v-998q0 -8 -5 -13t-13 -5h-96q-8 0 -13.5 5.5t-5.5 12.5z" />
<glyph unicode="j" horiz-adv-x="421" d="M-61 -307q-1 4 -1 7q0 9 13 13q66 8 99.5 18t56.5 36t29.5 65t6.5 111v1073q0 7 5.5 12.5t13.5 5.5h96q8 0 13 -5t5 -13v-1073q0 -166 -85 -262.5t-216 -96.5q-19 0 -22 21zM127 1346q0 51 16 64t68 13q50 0 67 -13.5t17 -63.5q0 -55 -17 -70.5t-67 -15.5 q-51 0 -67.5 15.5t-16.5 70.5z" />
<glyph unicode="k" horiz-adv-x="903" d="M143 18v1426q0 7 5.5 12.5t13.5 5.5h96q8 0 13 -5t5 -13v-895l455 512q5 6 13 7t14 -3l73 -55q15 -11 5 -27l-398 -430l441 -496q4 -6 4 -11q0 -8 -9 -15l-77 -58q-5 -3 -11 -3h-3q-8 1 -13 7l-494 568v-527q0 -8 -5 -13t-13 -5h-96q-8 0 -13.5 5.5t-5.5 12.5z" />
<glyph unicode="l" horiz-adv-x="448" d="M143 182v1262q0 7 5.5 12.5t13.5 5.5h96q8 0 13 -5t5 -13v-1276l50 -135q1 -3 1 -6q0 -5 -2 -9q-4 -8 -12 -10l-94 -22q-3 -1 -6 -1q-3 -1 -7 1q-7 4 -9 10l-45 127q-9 38 -9 59z" />
<glyph unicode="m" horiz-adv-x="1587" d="M143 18v998q0 7 5.5 12.5t13.5 5.5h96q8 0 13 -5t5 -13v-88q122 135 279 135q105 0 171 -35t101 -123q155 158 322 158q66 0 113 -11.5t87 -41.5t64 -81.5t37.5 -132t13.5 -192.5v-586q0 -8 -5 -13t-13 -5h-96q-8 0 -13.5 5.5t-5.5 12.5v560q0 83 -3 137t-12.5 95 t-21.5 62t-37.5 34t-53 16.5t-73.5 3.5q-87 0 -153 -16.5t-131 -55.5q24 -94 24 -250v-586q0 -8 -5 -13t-13 -5h-96q-8 0 -13.5 5.5t-5.5 12.5v560q0 71 -2.5 120t-7 88.5t-15 63t-23 40t-34.5 23.5t-45.5 10t-60.5 3q-93 0 -153 -12.5t-120 -45.5v-850q0 -8 -5 -13t-13 -5 h-96q-8 0 -13.5 5.5t-5.5 12.5z" />
<glyph unicode="n" horiz-adv-x="1071" d="M143 18v998q0 7 5.5 12.5t13.5 5.5h96q8 0 13 -5t5 -13v-88q52 58 134.5 96.5t181.5 38.5q98 0 160.5 -19t109 -71.5t66.5 -146.5t20 -242v-566q0 -8 -5 -13t-13 -5h-96q-8 0 -13.5 5.5t-5.5 12.5v539q0 69 -1.5 115.5t-7.5 88t-13 65.5t-24 45t-34.5 30t-50 15.5t-64 8 t-83.5 1.5q-155 0 -261 -58v-850q0 -8 -5 -13t-13 -5h-96q-8 0 -13.5 5.5t-5.5 12.5z" />
<glyph unicode="o" horiz-adv-x="1110" d="M123 522q0 160 22 263t75 165.5t132.5 87.5t202.5 25t202.5 -25t132.5 -87.5t75 -165.5t22 -263q0 -161 -21.5 -265t-74 -169t-132.5 -91t-204 -26t-204 26t-132.5 91t-74 169t-21.5 265zM270 518q0 -102 3.5 -166.5t17 -114.5t30.5 -75t53.5 -41t75 -19.5t105.5 -3.5 t105.5 3.5t75 19.5t53.5 41t30.5 75t17 114.5t3.5 166.5q0 98 -4 161t-17 112.5t-30.5 75.5t-52.5 43t-75.5 21.5t-105.5 4.5t-105.5 -4.5t-75.5 -21.5t-52.5 -43t-30.5 -75.5t-17 -112.5t-4 -161z" />
<glyph unicode="p" horiz-adv-x="1103" d="M143 -375v1391q0 7 5.5 12.5t13.5 5.5h96q8 0 13 -5t5 -13v-88q46 60 133 97.5t169 37.5q145 0 228.5 -48t125 -167t41.5 -330q0 -159 -21.5 -263.5t-71 -168t-121.5 -89.5t-181 -26q-82 0 -169 37.5t-133 97.5v-481q0 -7 -5 -12.5t-13 -5.5h-96q-8 0 -13.5 5.5 t-5.5 12.5zM276 166q124 -68 261 -68q68 0 108 4t76 20.5t53.5 42t30.5 76t16.5 114t3.5 163.5q0 99 -3.5 162t-16.5 113.5t-30.5 75.5t-53 41.5t-76.5 21t-108 4.5q-137 0 -261 -68v-702z" />
<glyph unicode="q" horiz-adv-x="1095" d="M123 518q0 211 41.5 330t125 167t228.5 48q82 0 168.5 -37.5t132.5 -97.5v88q0 7 5.5 12.5t13.5 5.5h96q8 0 13 -5t5 -13v-1391q0 -7 -5 -12.5t-13 -5.5h-96q-8 0 -13.5 5.5t-5.5 12.5v481q-46 -60 -132.5 -97.5t-168.5 -37.5q-109 0 -181 26t-121.5 89.5t-71 168 t-21.5 263.5zM270 518q0 -75 2 -127.5t8.5 -98.5t15 -74.5t26 -52t36.5 -35.5t51.5 -20t66 -10t83.5 -2q136 0 260 68v702q-124 68 -260 68q-67 0 -108 -4.5t-76.5 -21t-53.5 -42t-31 -75.5t-16.5 -113t-3.5 -162z" />
<glyph unicode="r" horiz-adv-x="716" d="M123 999q-2 5 -2 9q0 11 14 16l92 25q6 3 13.5 -1t9.5 -10l33 -110q76 65 142 100t144 35q89 0 142 -21q15 -3 15 -16q0 -3 -1 -6l-27 -100q-2 -8 -8.5 -13t-13.5 -2q-67 23 -139 23q-111 0 -244 -60v-850q0 -7 -5.5 -12.5t-13.5 -5.5h-96q-8 0 -13 5t-5 13v869z" />
<glyph unicode="s" horiz-adv-x="950" d="M115 756q0 150 88.5 228.5t283.5 78.5q141 0 293 -43q18 -7 11 -27l-25 -88q-1 -7 -8.5 -10.5t-12.5 -1.5q-122 47 -264 47q-138 0 -179.5 -36t-41.5 -148q0 -61 16.5 -89.5t63.5 -45.5t152 -31q195 -26 272.5 -94.5t77.5 -200.5q0 -161 -88 -242.5t-287 -81.5 q-182 0 -336 43q-7 1 -10 9.5t0 17.5l24 88q1 7 8.5 10.5t12.5 1.5q136 -49 307 -49q134 0 178.5 39.5t44.5 161.5q0 39 -4.5 61.5t-16 42t-38 31.5t-63.5 21t-99 18q-192 29 -276 92t-84 197z" />
<glyph unicode="t" horiz-adv-x="765" d="M59 940v76q0 7 5.5 12.5t13.5 5.5h131v209q0 20 12 25l101 37q3 1 6 1q4 0 8 -2q6 -4 6 -12v-258h322q8 0 13 -5t5 -13v-76q0 -8 -5 -13t-13 -5h-322v-574q0 -59 2.5 -98t11 -67.5t18.5 -44.5t30.5 -24.5t41.5 -11t56 -2.5q84 0 157 25q18 4 21 -12l22 -78q2 -4 2 -9 q0 -4 -1 -8q-3 -10 -11 -12q-74 -35 -196 -35q-110 0 -169.5 30t-88.5 111t-29 234v576h-131q-8 0 -13.5 5.5t-5.5 12.5z" />
<glyph unicode="u" horiz-adv-x="1079" d="M123 451v565q0 8 5.5 13t12.5 5h97q8 0 13 -5t5 -13v-539q0 -69 1.5 -115.5t7.5 -88t13.5 -65.5t24.5 -44.5t34.5 -29.5t50 -15.5t64 -8t83.5 -1.5q156 0 260 57v850q0 8 5.5 13t12.5 5h96q8 0 13.5 -5.5t5.5 -12.5v-889l28 -94q2 -5 2 -9q0 -11 -14 -16l-94 -22 q-6 -3 -13.5 0.5t-9.5 9.5l-32 110q-52 -58 -134.5 -96.5t-181.5 -38.5q-78 0 -132 12t-99 42.5t-71 85t-40 138t-14 202.5z" />
<glyph unicode="v" horiz-adv-x="944" d="M45 999q-1 3 -1 6q0 4 2 8q4 7 11 9l99 25q2 1 5 1q5 0 9 -2q8 -4 8 -10l264 -790l35 -142l35 142l258 790q1 6 9 10q5 2 9 2q2 0 5 -1l94 -25q7 -2 11 -9q2 -4 2 -8q0 -3 -1 -6l-334 -981q-7 -18 -20 -18h-148q-13 0 -20 18z" />
<glyph unicode="w" horiz-adv-x="1533" d="M66 999q-1 3 -1 6q-1 4 1 8q4 7 12 9l98 25q2 1 5 1q4 0 9 -2q8 -4 9 -10l221 -786l26 -146l31 146l213 766q4 18 21 18h112q17 0 21 -18l221 -766l33 -146l30 146l211 786q1 6 9 10q5 2 9 2q2 0 5 -1l94 -25q13 -2 13 -16q0 -3 -1 -7l-282 -981q-7 -18 -21 -18h-141 q-13 0 -20 18l-213 738l-27 141l-27 -141l-209 -738q-7 -18 -20 -18h-141q-14 0 -21 18z" />
<glyph unicode="x" horiz-adv-x="927" d="M61 49l328 475l-315 461q-4 6 -3 14t7 13l80 47q4 4 11 4q1 -1 2 -1q8 0 11 -5l238 -355l43 -84l43 84l239 355q3 5 11 5q1 0 2 1q7 0 12 -4l80 -47q6 -5 7 -13t-3 -14l-317 -461l329 -475q5 -6 5 -12q0 -8 -9 -14l-80 -48q-4 -4 -11 -4q-1 1 -2 1q-8 0 -11 5l-242 355 l-53 98l-51 -98l-242 -355q-4 -5 -12 -5q-1 0 -1 -1q-7 0 -12 4l-79 48q-9 7 -9 15q0 5 4 11z" />
<glyph unicode="y" horiz-adv-x="944" d="M45 999q-1 3 -1 6q0 4 2 8q3 7 11 9l99 25q2 1 5 1q4 0 9 -2q7 -4 8 -10l264 -790l31 -154l39 154l258 790q1 6 9 10q5 2 9 2q3 0 5 -1l94 -25q8 -2 11 -9q2 -4 2 -8q0 -3 -1 -6l-389 -1161q-85 -254 -295 -254q-19 0 -22 21l-15 88q-3 7 1.5 13.5t10.5 6.5q39 0 64 3.5 t47.5 17t36.5 30t30.5 53.5t29 75.5t32.5 107.5h-24q-22 0 -27 16z" />
<glyph unicode="z" horiz-adv-x="917" d="M61 18v23q0 19 15 39l590 842h-555q-8 0 -13.5 5.5t-5.5 12.5v76q0 7 5.5 12.5t13.5 5.5h729q8 0 13 -5t5 -13v-23q0 -20 -14 -39l-584 -841h582q7 0 12.5 -5.5t5.5 -13.5v-76q0 -8 -5 -13t-13 -5h-762q-8 0 -13.5 5.5t-5.5 12.5z" />
<glyph unicode="{" horiz-adv-x="677" d="M53 483v54q0 10 6 18t17 8q38 0 69 11t59.5 39.5t47.5 74.5t30 118.5t11 168.5q0 246 83 386.5t222 186.5q9 4 18.5 3t12.5 -7l45 -78q12 -20 -10 -26q-55 -15 -94.5 -43t-72 -79.5t-49 -137t-16.5 -205.5q0 -98 -12.5 -178t-31 -129t-44 -84.5t-47.5 -51t-45 -22.5 q23 -7 45 -22.5t47.5 -51t44 -84.5t31 -129t12.5 -178q0 -120 16.5 -205.5t49 -137t72 -79.5t94.5 -43q22 -6 10 -26l-45 -78q-3 -6 -12.5 -7t-18.5 3q-139 46 -222 186.5t-83 386.5q0 96 -11 168.5t-30 118.5t-47.5 74.5t-59.5 39.5t-69 11q-9 0 -16 8.5t-7 17.5z" />
<glyph unicode="|" horiz-adv-x="624" d="M246 -397v1841q0 8 5 13t13 5h96q8 0 13.5 -5.5t5.5 -12.5v-1841q0 -7 -5.5 -13t-13.5 -6h-96q-7 0 -12.5 5.5t-5.5 13.5z" />
<glyph unicode="}" horiz-adv-x="677" d="M4 -446q-12 20 10 26q55 15 94.5 43t72 79.5t49 137t16.5 205.5q0 98 12.5 178t31 129t44 84.5t47.5 51t45 22.5q-23 7 -45 22.5t-47.5 51t-44 84.5t-31 129t-12.5 178q0 120 -16.5 205.5t-49 137t-72 79.5t-94.5 43q-22 6 -10 26l45 78q3 6 12.5 7t18.5 -3 q139 -46 222 -186.5t83 -386.5q0 -96 11 -168.5t30 -118.5t47.5 -74.5t59.5 -39.5t69 -11q11 0 17 -8t6 -18v-54q0 -9 -7 -17.5t-16 -8.5q-38 0 -69 -11t-59.5 -39.5t-47.5 -74.5t-30 -118.5t-11 -168.5q0 -246 -83 -386.5t-222 -186.5q-9 -4 -18.5 -3t-12.5 7z" />
<glyph unicode="~" horiz-adv-x="1253" d="M113 680q40 106 110 161.5t162 55.5q57 0 155 -44t191 -88t139 -44q124 0 174 149q3 9 12 11.5t15 -2.5l66 -39q11 -9 4 -31q-40 -105 -110 -161t-163 -56q-54 0 -154.5 44t-195.5 88t-135 44q-124 0 -174 -150q-3 -9 -12 -11t-15 3l-65 39q-11 9 -4 31z" />
<glyph unicode="&#xa2;" d="M225 807q0 196 36 309.5t113.5 167t213.5 62.5v178q0 8 5 13t13 5h82q8 0 13.5 -5.5t5.5 -12.5v-178q147 -7 233 -41q17 -7 10 -27l-24 -88q-1 -7 -8.5 -10.5t-12.5 -1.5q-84 34 -198 41v-836q108 6 198 43q5 2 12.5 -1.5t8.5 -10.5l24 -88q7 -20 -10 -27 q-92 -36 -233 -43v-164q0 -7 -5.5 -12.5t-13.5 -5.5h-82q-8 0 -13 5t-5 13v166q-135 9 -213 64.5t-114 171.5t-36 313zM373 803q0 -109 5.5 -177t18 -117.5t38.5 -74t61 -36.5t92 -15v836q-56 -4 -91.5 -17t-61.5 -38.5t-38.5 -75t-18 -115.5t-5.5 -170z" />
<glyph unicode="&#xa3;" d="M135 692v82q0 8 5.5 13.5t13.5 5.5h71q1 139 14 243.5t40.5 178.5t64 122t91.5 75.5t116.5 38.5t144.5 11q159 0 336 -43q7 -1 10 -9t0 -17l-26 -88q-1 -7 -8.5 -11t-12.5 -2q-119 43 -299 43q-58 0 -95.5 -2.5t-74.5 -12.5t-57.5 -24.5t-40.5 -44.5t-29 -66.5 t-16.5 -96.5t-9.5 -128t-2 -167h254q7 0 12.5 -5.5t5.5 -13.5v-82q0 -8 -5.5 -13t-12.5 -5h-254v-551h608q7 0 12.5 -5.5t5.5 -13.5v-86q0 -8 -5.5 -13t-12.5 -5h-735q-8 0 -13.5 5.5t-5.5 12.5v656h-71q-8 0 -13.5 5.5t-5.5 12.5z" />
<glyph unicode="&#xa5;" d="M35 1372q-11 18 4 29l82 51q5 4 14.5 3.5t14.5 -5.5l364 -541l57 -110l56 110l360 541q5 5 13.5 5.5t13.5 -3.5l84 -51q15 -11 4 -29l-459 -674v-153h315q8 0 13.5 -5.5t5.5 -13.5v-80q0 -7 -5.5 -12.5t-13.5 -5.5h-315v-410q0 -8 -5.5 -13t-12.5 -5h-109q-8 0 -13 5 t-5 13v410h-318q-8 0 -13 5t-5 13v80q0 8 5.5 13.5t12.5 5.5h318v153z" />
<glyph unicode="&#xa8;" horiz-adv-x="835" d="M150 1286q0 51 17 65.5t69 14.5q49 0 66 -14.5t17 -65.5q0 -55 -17 -71.5t-66 -16.5q-51 0 -68.5 16.5t-17.5 71.5zM516 1286q0 51 17 65.5t69 14.5q50 0 67 -15t17 -65q0 -55 -17.5 -71.5t-66.5 -16.5q-51 0 -68.5 16.5t-17.5 71.5z" />
<glyph unicode="&#xa9;" horiz-adv-x="1787" d="M156 721q0 174 29 300.5t84 211.5t146.5 135.5t206 72t271.5 21.5q158 0 272.5 -21.5t206 -72t147 -135.5t84.5 -211.5t29 -300.5q0 -177 -28.5 -304.5t-84 -214t-147 -137.5t-206 -72.5t-273.5 -21.5q-158 0 -272.5 21.5t-205.5 72.5t-146.5 137t-84 214t-28.5 305z M303 717q0 -128 11 -219.5t38.5 -163t69.5 -116t110 -73.5t153.5 -40t205.5 -11q122 0 208.5 11t155 40t111.5 73.5t71 116t39 163t11 219.5q0 134 -11 228.5t-39.5 167t-70.5 116t-112 70.5t-155 37t-208 10q-122 0 -205.5 -10t-153 -37t-110.5 -70.5t-69.5 -116 t-39 -166.5t-10.5 -229zM496 729q0 268 96.5 373.5t337.5 105.5q68 0 148 -12t132 -31q17 -7 11 -26l-25 -88q-1 -7 -8 -11t-12 -2q-105 43 -246 43q-65 0 -106 -4.5t-75.5 -19t-53 -37.5t-31.5 -65t-17 -95.5t-4 -134.5q0 -86 4 -141t17.5 -97.5t31 -64t53.5 -35t75 -17 t106 -3.5q141 0 246 43q5 2 12 -2t8 -11l25 -88q6 -19 -11 -26q-52 -19 -132 -31t-148 -12q-241 0 -337.5 108.5t-96.5 380.5z" />
<glyph unicode="&#xab;" horiz-adv-x="1284" d="M82 588v43q0 15 10 22l578 574q11 15 26 4l54 -64q6 -5 7 -13t-5 -13l-521 -531l521 -534q6 -5 5 -13.5t-7 -13.5l-54 -63q-15 -11 -26 4l-578 573q-10 7 -10 25zM526 588v43q0 14 11 22l577 574q5 6 13 7t14 -3l53 -64q6 -5 7 -13t-5 -13l-520 -531l520 -534 q6 -5 5 -13.5t-7 -13.5l-53 -63q-6 -4 -14 -3t-13 7l-577 573q-11 8 -11 25z" />
<glyph unicode="&#xad;" horiz-adv-x="663" d="M109 520v88q0 8 5.5 13.5t12.5 5.5h410q7 0 12.5 -5.5t5.5 -13.5v-88q0 -8 -5.5 -13t-12.5 -5h-410q-7 0 -12.5 5t-5.5 13z" />
<glyph unicode="&#xae;" horiz-adv-x="1050" d="M82 995q0 136 26 227t83 143.5t136.5 74.5t196.5 22q118 0 198 -22t137.5 -74.5t83.5 -143.5t26 -227t-26.5 -227.5t-83.5 -146t-137 -77t-198 -22.5t-198 22.5t-136 77t-82 146t-26 227.5zM180 995q0 -114 15 -185.5t55 -118t105 -65t169 -18.5q85 0 143.5 12.5 t99.5 38.5t63.5 73t32 109t9.5 154q0 120 -14.5 191.5t-55.5 116.5t-105.5 61t-172.5 16q-106 0 -169.5 -16t-104 -61t-55.5 -117t-15 -191zM342 737v523q0 24 23 24h223q155 0 155 -170q0 -145 -112 -168l117 -180q8 -12 8 -23q0 -7 -17 -16l-34 -16q-17 -9 -25.5 -7 t-17.5 19l-138 219h-82v-205q0 -11 -5 -16.5t-19 -5.5h-53q-11 0 -17 6.5t-6 15.5zM442 1020h144q29 0 38 17t9 77q0 56 -9 72t-38 16h-144v-182z" />
<glyph unicode="&#xb4;" horiz-adv-x="1011" d="M270.5 1195.5q-1.5 8.5 3.5 14.5l213 236q14 14 35 6l82 -43q9 -3 9.5 -14t-7.5 -17l-244 -229q-11 -9 -28 -2l-55 37q-7 3 -8.5 11.5z" />
<glyph unicode="&#xb8;" horiz-adv-x="1339" d="M518 -360l25 59q6 12 18 8q82 -29 187 -29q70 0 87 11.5t17 56.5q0 32 -13.5 44.5t-59.5 18t-158 5.5q-9 0 -14.5 7t-2.5 15l68 164h69v-100q137 0 190.5 -35.5t53.5 -114.5q0 -87 -54.5 -126.5t-189.5 -39.5q-155 0 -217 35q-11 7 -6 21z" />
<glyph unicode="&#xbb;" horiz-adv-x="1284" d="M83 62.5q-1 8.5 5 13.5l520 530l-520 535q-6 5 -5 13t7 13l53 64q6 4 14 3t13 -7l578 -574q10 -8 10 -24v-43q0 -16 -10 -23l-578 -573q-5 -6 -13 -7t-14 3l-53 63q-6 5 -7 13.5zM527.5 62.5q-1.5 8.5 4.5 13.5l521 530l-521 535q-6 5 -4.5 13t7.5 13l53 64q15 11 26 -4 l578 -574q10 -8 10 -24v-43q0 -16 -10 -23l-578 -573q-11 -15 -26 -4l-53 63q-6 5 -7.5 13.5z" />
<glyph unicode="&#x2c6;" horiz-adv-x="1366" d="M441.5 1218q-3.5 9 2.5 15l187 201q16 16 45 16h90q29 0 45 -16l186 -201q6 -6 3 -15t-11 -12l-67 -37q-12 -6 -27 9l-174 184l-174 -184q-17 -17 -27 -9l-67 37q-8 3 -11.5 12z" />
<glyph unicode="&#x2da;" horiz-adv-x="1488" d="M514 1319q0 99 51.5 145.5t171.5 46.5q110 0 168 -48t58 -144t-58 -144.5t-168 -48.5q-108 0 -165.5 48.5t-57.5 144.5zM625 1315q0 -65 20.5 -83t91.5 -18q75 0 96 17.5t21 83.5q0 68 -20.5 85t-96.5 17q-73 0 -92.5 -17t-19.5 -85z" />
<glyph unicode="&#x2dc;" horiz-adv-x="1091" d="M231 1266q73 153 193 153q37 0 71 -17t55.5 -38t52 -38t61.5 -17q35 0 58 22.5t42 75.5q3 9 12 11t15 -3l65 -39q14 -11 4 -30q-74 -154 -180 -154q-49 0 -90.5 17.5t-65 38t-50.5 38t-50 17.5q-32 0 -54.5 -23t-41.5 -76q-3 -9 -12 -11t-15 3l-65 39q-15 12 -5 31z" />
<glyph unicode="&#x401;" horiz-adv-x="1079" d="M184 18v1391q0 7 5.5 12.5t13.5 5.5h796q8 0 13.5 -5.5t5.5 -12.5v-86q0 -7 -5.5 -12.5t-13.5 -5.5h-669v-486h547q7 0 12.5 -5.5t5.5 -12.5v-86q0 -8 -5.5 -13.5t-12.5 -5.5h-547v-573h669q7 0 13 -5.5t6 -13.5v-86q0 -7 -5.5 -12.5t-13.5 -5.5h-796q-8 0 -13.5 5.5 t-5.5 12.5zM342 1655q0 51 17 65.5t69 14.5q50 0 67 -14.5t17 -65.5q0 -55 -17.5 -71.5t-66.5 -16.5q-51 0 -68.5 16.5t-17.5 71.5zM729 1655q0 51 17 65.5t69 14.5q50 0 67 -14.5t17 -65.5q0 -55 -17.5 -71.5t-66.5 -16.5q-51 0 -68.5 16.5t-17.5 71.5z" />
<glyph unicode="&#x402;" horiz-adv-x="1378" d="M0 1323v86q0 7 5 12.5t13 5.5h986q8 0 13 -5.5t5 -12.5v-86q0 -7 -5 -12.5t-13 -5.5h-420v-377q52 58 134 96.5t181 38.5q98 0 160.5 -19t109 -71.5t66.5 -146.5t20 -242v-641q0 -166 -85 -262.5t-216 -96.5q-19 0 -22 21l-14 88q-6 15 12 20q66 8 99.5 18t56.5 36 t29.5 65t6.5 111v614q0 71 -1.5 118.5t-7.5 90.5t-13 68t-24.5 46t-34.5 30.5t-49.5 16t-64 8t-83.5 1.5q-136 0 -260 -68v-850q0 -7 -5.5 -12.5t-13.5 -5.5h-108q-8 0 -13.5 5.5t-5.5 12.5v1287h-420q-8 0 -13 5.5t-5 12.5z" />
<glyph unicode="&#x403;" horiz-adv-x="956" d="M184 18v1391q0 7 5.5 12.5t13.5 5.5h735q8 0 13 -5.5t5 -12.5v-86q0 -7 -5 -12.5t-13 -5.5h-608v-1287q0 -7 -5.5 -12.5t-13.5 -5.5h-108q-8 0 -13.5 5.5t-5.5 12.5zM498 1562q-1 9 4 15l235 231q15 15 35 7l90 -33q9 -3 9.5 -14t-7.5 -17l-266 -229q-12 -9 -29 -2 l-63 30q-7 3 -8 12z" />
<glyph unicode="&#x404;" horiz-adv-x="1130" d="M129 727q0 151 14 263.5t46 194.5t77 135t114.5 85t150 44.5t190.5 12.5q184 0 356 -51q17 -7 10 -27l-26 -88q-1 -7 -8.5 -10.5t-12.5 -1.5q-141 51 -317 51q-91 0 -149.5 -6t-110.5 -26t-80.5 -53.5t-50.5 -93t-30.5 -139.5t-10.5 -198h586q7 0 12.5 -5.5t5.5 -12.5 v-86q0 -8 -5.5 -13.5t-12.5 -5.5h-588q1 -104 5 -179.5t15.5 -139t25.5 -105.5t40.5 -74.5t56 -50.5t76 -29t95.5 -14.5t120 -3.5q178 0 317 50q5 2 12.5 -2t8.5 -11l26 -88q6 -19 -10 -26q-175 -52 -356 -52q-110 0 -190.5 12.5t-150 45t-114.5 87t-77 139t-46 200.5 t-14 272z" />
<glyph unicode="&#x405;" horiz-adv-x="1193" d="M131 1044q0 226 117 322t381 96q192 0 364 -51q18 -7 11 -27l-27 -88q-1 -7 -8.5 -10.5t-12.5 -1.5q-141 51 -325 51q-80 0 -135 -5t-93.5 -20.5t-60.5 -34t-34 -54.5t-15.5 -73.5t-3.5 -98.5q0 -41 1.5 -68.5t9.5 -52.5t15.5 -39.5t28.5 -28.5t39.5 -21t57.5 -14.5 t73.5 -11.5t95.5 -10q132 -13 218.5 -41.5t139 -80t74 -121t21.5 -171.5q0 -222 -128.5 -320t-395.5 -98q-190 0 -365 52q-16 7 -10 26l26 88q1 7 8.5 11t12.5 2q144 -52 326 -52q119 0 190 13t112 49t54.5 87.5t13.5 139.5q0 66 -6.5 105t-24 71.5t-54.5 50.5t-91.5 30 t-142.5 20q-263 25 -360 105t-97 275z" />
<glyph unicode="&#x406;" horiz-adv-x="514" d="M184 18v1391q0 7 5.5 12.5t13.5 5.5h108q8 0 13.5 -5.5t5.5 -12.5v-1391q0 -7 -5.5 -12.5t-13.5 -5.5h-108q-8 0 -13.5 5.5t-5.5 12.5z" />
<glyph unicode="&#x407;" horiz-adv-x="514" d="M-23 1655q0 51 17 65.5t69 14.5q50 0 67 -14.5t17 -65.5q0 -55 -17.5 -71.5t-66.5 -16.5q-51 0 -68.5 16.5t-17.5 71.5zM184 18v1391q0 7 5.5 12.5t13.5 5.5h108q8 0 13.5 -5.5t5.5 -12.5v-1391q0 -7 -5.5 -12.5t-13.5 -5.5h-108q-8 0 -13.5 5.5t-5.5 12.5zM365 1655 q0 51 17 65.5t69 14.5q50 0 67 -14.5t17 -65.5q0 -55 -17.5 -71.5t-66.5 -16.5q-51 0 -68.5 16.5t-17.5 71.5z" />
<glyph unicode="&#x408;" horiz-adv-x="872" d="M0 49l27 88q1 7 8 11t12 2q53 -22 127 -36t129 -14q77 0 120.5 10t72 43t38 88t9.5 152v1016q0 7 5.5 12.5t12.5 5.5h109q8 0 13 -5.5t5 -12.5v-1016q0 -217 -102 -319.5t-281 -102.5q-153 0 -295 52q-16 7 -10 26z" />
<glyph unicode="&#x409;" horiz-adv-x="1978" d="M92 18q117 313 177.5 674t60.5 717q0 7 5 12.5t13 5.5h752q8 0 13 -5.5t5 -12.5v-590h441q194 0 276 -105.5t82 -307.5q0 -198 -92.5 -302t-265.5 -104h-568q-7 0 -12.5 5t-5.5 13v1287h-506q-14 -741 -211 -1285q-8 -20 -20 -20h-125q-8 0 -13.5 5.5t-5.5 12.5z M1118 123h441q79 0 120.5 23.5t60.5 83.5t19 176q0 120 -20.5 182.5t-61.5 85t-118 22.5h-441v-573z" />
<glyph unicode="&#x40a;" horiz-adv-x="1904" d="M184 18v1391q0 7 5.5 12.5t13.5 5.5h108q8 0 13.5 -5.5t5.5 -12.5v-590h569v590q0 7 5.5 12.5t13.5 5.5h108q8 0 13 -5.5t5 -12.5v-590h441q194 0 276 -105.5t82 -307.5q0 -198 -92.5 -302t-265.5 -104h-567q-8 0 -13.5 5.5t-5.5 12.5v680h-569v-680q0 -7 -5.5 -12.5 t-13.5 -5.5h-108q-8 0 -13.5 5.5t-5.5 12.5zM1044 123h441q79 0 120.5 23.5t61 83.5t19.5 176q0 120 -20.5 183t-62 86t-118.5 23h-441v-575z" />
<glyph unicode="&#x40b;" horiz-adv-x="1378" d="M0 1323v86q0 7 5 12.5t13 5.5h986q8 0 13 -5.5t5 -12.5v-86q0 -7 -5 -12.5t-13 -5.5h-420v-377q52 58 134 96.5t181 38.5q98 0 160.5 -19t109 -71.5t66.5 -146.5t20 -242v-566q0 -8 -5.5 -13t-12.5 -5h-96q-8 0 -13.5 5.5t-5.5 12.5v539q0 71 -1.5 118.5t-7.5 90.5 t-13 68t-24.5 46t-34.5 30.5t-49.5 16t-64 8t-83.5 1.5q-136 0 -260 -68v-850q0 -7 -5.5 -12.5t-13.5 -5.5h-108q-8 0 -13.5 5.5t-5.5 12.5v1287h-420q-8 0 -13 5.5t-5 12.5z" />
<glyph unicode="&#x40c;" horiz-adv-x="1146" d="M184 18v1391q0 7 5.5 12.5t13.5 5.5h108q8 0 13.5 -5.5t5.5 -12.5v-647q62 39 116.5 100t94 124.5t79.5 132.5t81 129t88.5 109t112 77t142.5 28q8 0 13.5 -5.5t5.5 -12.5l14 -86q0 -8 -5.5 -13.5t-12.5 -5.5q-70 0 -135 -49t-116.5 -125t-98 -155t-101 -153t-104.5 -105 q51 -32 108.5 -112.5t108.5 -170.5t104.5 -176t114 -142.5t119.5 -56.5q7 0 12.5 -5t5.5 -13l-14 -86q0 -8 -5.5 -13.5t-13.5 -5.5q-78 0 -142.5 32t-112 87t-88.5 122.5t-81 144t-79.5 146.5t-94 134.5t-116.5 103.5v-723q0 -7 -5.5 -12.5t-13.5 -5.5h-108q-8 0 -13.5 5.5 t-5.5 12.5zM496 1562q-1 9 4 15l235 231q15 15 35 7l90 -33q9 -3 9.5 -14t-7.5 -17l-266 -229q-12 -9 -29 -2l-63 30q-7 3 -8 12z" />
<glyph unicode="&#x40e;" horiz-adv-x="966" d="M6 1407q-3 8 1 15t13 8l101 24q20 4 24 -10l293 -791l45 -157l49 157l287 791q1 6 9.5 9t15.5 1l96 -24q9 -1 13 -8t1 -15l-440 -1182q-95 -254 -328 -254q-21 0 -24 21l-17 88q-3 7 2.5 13.5t12.5 6.5q42 0 71.5 4.5t55 19.5t42 33.5t35.5 57t33.5 78t36.5 108.5h-28 q-23 0 -29 17zM219 1774q0 7 7.5 12.5t15.5 5.5h90q8 0 14 -5.5t6 -12.5q0 -36 0.5 -52t4.5 -38t12 -30t23.5 -17.5t38.5 -12t58 -2.5q26 0 45.5 1.5t34 6.5t24.5 9.5t16.5 16t10 19.5t5 27t2 32t0.5 40q0 7 6 12.5t14 5.5h90q8 0 15.5 -5.5t7.5 -12.5q0 -131 -66.5 -187.5 t-206.5 -56.5q-137 0 -202.5 56.5t-65.5 187.5z" />
<glyph unicode="&#x40f;" horiz-adv-x="1331" d="M184 18v1391q0 7 5.5 12.5t13.5 5.5h108q8 0 13.5 -5.5t5.5 -12.5v-1286h671v1286q0 7 5.5 12.5t13.5 5.5h108q8 0 13.5 -5.5t5.5 -12.5v-1391q0 -7 -5.5 -12.5t-13.5 -5.5h-391l-18 -240q0 -7 -5.5 -12.5t-13.5 -5.5h-69q-8 0 -13.5 5.5t-5.5 12.5l-20 240h-389 q-8 0 -13.5 5.5t-5.5 12.5z" />
<glyph unicode="&#x410;" horiz-adv-x="1157" d="M23 31l456 1378q7 18 21 18h159q14 0 21 -18l455 -1378q3 -7 -1 -14t-12 -9l-98 -24q-6 -2 -14 1t-9 9l-143 436h-567l-139 -436q-1 -6 -9 -9t-14 -1l-94 24q-8 2 -11.5 9t-0.5 14zM328 547h493l-207 635l-41 161l-41 -161z" />
<glyph unicode="&#x411;" horiz-adv-x="1189" d="M184 18v1391q0 7 5.5 12.5t13.5 5.5h821q8 0 13 -5.5t5 -12.5v-86q0 -7 -5 -12.5t-13 -5.5h-694v-486h440q194 0 276 -105.5t82 -307.5q0 -198 -92.5 -302t-265.5 -104h-567q-8 0 -13.5 5.5t-5.5 12.5zM330 123h440q79 0 120.5 23.5t61 83.5t19.5 176q0 120 -20.5 182.5 t-61.5 85t-119 22.5h-440v-573z" />
<glyph unicode="&#x412;" horiz-adv-x="1263" d="M184 18v1391q0 7 5.5 12.5t13.5 5.5h559q83 0 144.5 -19t98.5 -49.5t59.5 -76.5t30 -92.5t7.5 -104.5q0 -56 -5 -96t-22 -83t-46.5 -70.5t-82.5 -48t-127 -27.5q79 -3 137 -24t93 -53t56 -79t28.5 -95t7.5 -110q0 -198 -92 -298.5t-265 -100.5h-581q-8 0 -13.5 5.5 t-5.5 12.5zM330 123h452q49 0 80 6.5t56 23t38.5 48t20 80t6.5 120.5q0 119 -21 183t-64.5 88t-123.5 24h-444v-573zM330 819h432q109 0 148.5 53t39.5 195q0 80 -7.5 125t-31 71.5t-56.5 34t-93 7.5h-432v-486z" />
<glyph unicode="&#x413;" horiz-adv-x="956" d="M184 18v1391q0 7 5.5 12.5t13.5 5.5h735q8 0 13 -5.5t5 -12.5v-86q0 -7 -5 -12.5t-13 -5.5h-608v-1287q0 -7 -5.5 -12.5t-13.5 -5.5h-108q-8 0 -13.5 5.5t-5.5 12.5z" />
<glyph unicode="&#x414;" horiz-adv-x="1449" d="M23 104q0 8 5.5 13.5t12.5 5.5h195q57 153 93 308t52 325t20.5 308.5t4.5 344.5q0 7 5 12.5t13 5.5h721q7 0 12.5 -5.5t5.5 -12.5v-1286h228q7 0 12.5 -5.5t5.5 -13.5l-41 -387q0 -7 -5 -12.5t-13 -5.5h-86q-8 0 -13.5 5.5t-5.5 12.5v283h-1059v-283q0 -7 -5 -12.5 t-13 -5.5h-86q-8 0 -13.5 5.5t-5.5 12.5zM360 123h658v1182h-465q-3 -179 -11 -309t-27.5 -285.5t-58 -301t-96.5 -286.5z" />
<glyph unicode="&#x415;" horiz-adv-x="1079" d="M184 18v1391q0 7 5.5 12.5t13.5 5.5h796q8 0 13.5 -5.5t5.5 -12.5v-86q0 -7 -5.5 -12.5t-13.5 -5.5h-669v-486h547q7 0 12.5 -5.5t5.5 -12.5v-86q0 -8 -5.5 -13.5t-12.5 -5.5h-547v-573h669q7 0 13 -5.5t6 -13.5v-86q0 -7 -5.5 -12.5t-13.5 -5.5h-796q-8 0 -13.5 5.5 t-5.5 12.5z" />
<glyph unicode="&#x416;" horiz-adv-x="1742" d="M55 76q0 7 5.5 12.5t13.5 5.5q59 0 119 56.5t113 142.5t103.5 176t107.5 170.5t108 112.5q-50 31 -104 105t-100 153t-97 155t-115.5 125t-134.5 49q-8 0 -13.5 5.5t-5.5 13.5l15 86q0 8 5 13t13 5q78 0 142.5 -28t111.5 -77t88 -109t80 -129t78.5 -132.5t94 -124.5 t116.5 -100v647q0 7 5.5 12.5t12.5 5.5h109q8 0 13 -5.5t5 -12.5v-647q62 39 116.5 100t94 124.5t78.5 132.5t80 129t88 109t111.5 77t142.5 28q7 0 12.5 -5t5.5 -13l15 -86q0 -8 -6 -13.5t-13 -5.5q-70 0 -134.5 -49t-115.5 -125t-97 -155t-100 -153t-104 -105 q51 -32 108 -112.5t107.5 -170.5t103.5 -176t113 -142.5t119 -56.5q8 0 13.5 -5.5t5.5 -12.5l-15 -86q0 -8 -5.5 -13.5t-12.5 -5.5q-78 0 -142.5 32t-111.5 87t-88 122.5t-80 144t-79 146.5t-94 134.5t-116 103.5v-723q0 -8 -5 -13t-13 -5h-109q-7 0 -12.5 5t-5.5 13v723 q-62 -39 -116 -103.5t-94 -134.5t-79 -146.5t-80 -144t-88 -122.5t-111.5 -87t-142.5 -32q-7 0 -12.5 5.5t-5.5 13.5z" />
<glyph unicode="&#x417;" horiz-adv-x="1110" d="M102 49l27 88q1 7 8.5 11t12.5 2q144 -52 317 -52q85 0 139 3.5t97.5 17t65.5 32t37 55t19 79.5t4 112q0 68 -4 110.5t-17.5 79t-34.5 55.5t-60.5 32.5t-90 17.5t-128.5 4h-164q-8 0 -13.5 6t-5.5 13v86q0 7 5.5 12.5t13.5 5.5h164q104 0 163.5 11.5t94 45.5t45 83 t10.5 137q0 65 -7 103t-24.5 68t-56 43.5t-94 20t-146.5 6.5q-187 0 -336 -47q-5 -2 -12 2t-8 11l-21 86q-6 19 11 26q158 47 366 47q143 0 237.5 -21.5t147.5 -67.5t73.5 -107t20.5 -152q0 -69 -11.5 -123.5t-39 -103.5t-81 -80t-130.5 -39q291 -15 291 -375 q0 -237 -115 -329.5t-403 -92.5q-181 0 -356 52q-17 7 -11 26z" />
<glyph unicode="&#x418;" horiz-adv-x="1333" d="M184 18v1391q0 7 5.5 12.5t13.5 5.5h108q8 0 13.5 -5.5t5.5 -12.5v-1081l-8 -181l67 172l561 1090q11 18 31 18h147q14 0 21 -18v-1391q0 -7 -5.5 -12.5t-13.5 -5.5h-108q-8 0 -13 5t-5 13v1082l10 164l-70 -156l-561 -1090q-11 -18 -31 -18h-147q-14 0 -21 18z" />
<glyph unicode="&#x419;" horiz-adv-x="1333" d="M184 18v1391q0 7 5.5 12.5t13.5 5.5h108q8 0 13.5 -5.5t5.5 -12.5v-1081l-8 -181l67 172l561 1090q11 18 31 18h147q14 0 21 -18v-1391q0 -7 -5.5 -12.5t-13.5 -5.5h-108q-8 0 -13 5t-5 13v1082l10 164l-70 -156l-561 -1090q-11 -18 -31 -18h-147q-14 0 -21 18zM422 1774 q0 7 7 12.5t15 5.5h91q8 0 14 -5.5t6 -12.5q0 -36 0.5 -52t4.5 -38t12 -30t23.5 -17.5t38.5 -12t58 -2.5t58 2.5t38.5 12t23.5 17.5t12 30t4.5 38t0.5 52q0 7 6.5 12.5t14.5 5.5h90q8 0 15.5 -5.5t7.5 -12.5q0 -131 -66.5 -187.5t-206.5 -56.5q-137 0 -202.5 56.5 t-65.5 187.5z" />
<glyph unicode="&#x41a;" horiz-adv-x="1146" d="M184 18v1391q0 7 5.5 12.5t13.5 5.5h108q8 0 13.5 -5.5t5.5 -12.5v-647q62 39 116.5 100t94 124.5t79.5 132.5t81 129t88.5 109t112 77t142.5 28q8 0 13.5 -5.5t5.5 -12.5l14 -86q0 -8 -5.5 -13.5t-12.5 -5.5q-70 0 -135 -49t-116.5 -125t-98 -155t-101 -153t-104.5 -105 q51 -32 108.5 -112.5t108.5 -170.5t104.5 -176t114 -142.5t119.5 -56.5q7 0 12.5 -5t5.5 -13l-14 -86q0 -8 -5.5 -13.5t-13.5 -5.5q-78 0 -142.5 32t-112 87t-88.5 122.5t-81 144t-79.5 146.5t-94 134.5t-116.5 103.5v-723q0 -7 -5.5 -12.5t-13.5 -5.5h-108q-8 0 -13.5 5.5 t-5.5 12.5z" />
<glyph unicode="&#x41b;" horiz-adv-x="1302" d="M92 29q117 276 177.5 644.5t60.5 735.5q0 7 5 12.5t13 5.5h752q8 0 13 -5.5t5 -12.5v-1391q0 -8 -5 -13t-13 -5h-109q-7 0 -12.5 5t-5.5 13v1287h-506q-15 -752 -211 -1295q-8 -20 -20 -20l-125 20q-7 0 -13 6t-6 13z" />
<glyph unicode="&#x41c;" horiz-adv-x="1560" d="M184 18v1391q7 18 21 18h180q25 0 31 -18l338 -1036l34 -142l35 142l322 1036q6 18 31 18h180q13 0 20 -18v-1391q0 -8 -5 -13t-13 -5h-109q-7 0 -12.5 5t-5.5 13v1082l8 184l-47 -182l-322 -975q-7 -18 -20 -18h-135q-14 0 -21 18l-325 975l-47 182l8 -184v-1082 q0 -7 -5.5 -12.5t-13.5 -5.5h-108q-8 0 -13.5 5.5t-5.5 12.5z" />
<glyph unicode="&#x41d;" horiz-adv-x="1331" d="M184 18v1391q0 7 5.5 12.5t13.5 5.5h108q8 0 13.5 -5.5t5.5 -12.5v-588h671v588q0 7 5.5 12.5t13.5 5.5h108q8 0 13.5 -5.5t5.5 -12.5v-1391q0 -7 -5.5 -12.5t-13.5 -5.5h-108q-8 0 -13.5 5.5t-5.5 12.5v680h-671v-680q0 -7 -5.5 -12.5t-13.5 -5.5h-108q-8 0 -13.5 5.5 t-5.5 12.5z" />
<glyph unicode="&#x41e;" horiz-adv-x="1359" d="M129 727q0 179 23.5 307.5t66 211t112.5 131t152.5 67t196.5 18.5t196.5 -18.5t152.5 -67t112.5 -131t66 -211t23.5 -307.5q0 -155 -15.5 -272.5t-48 -200.5t-76.5 -138.5t-108.5 -87t-136 -44.5t-166.5 -13t-166.5 13t-136 44.5t-108.5 87t-76.5 138.5t-48 200.5 t-15.5 272.5zM289 727q0 -107 4.5 -188.5t15.5 -146t25 -109.5t39.5 -77.5t52.5 -51.5t69 -30t84 -14.5t103 -3.5q60 0 101.5 3.5t83 14.5t68.5 30t52 51.5t39 77.5t25 109.5t15.5 146t4.5 188.5q0 104 -4.5 182.5t-15.5 141t-25 106.5t-39 75.5t-52 50t-68.5 29t-83 14 t-101.5 3.5q-61 0 -103 -3.5t-84 -14t-69 -29t-52.5 -50t-39.5 -75.5t-25 -106.5t-15.5 -141t-4.5 -182.5z" />
<glyph unicode="&#x41f;" horiz-adv-x="1331" d="M184 18v1391q0 7 5.5 12.5t13.5 5.5h925q8 0 13.5 -5.5t5.5 -12.5v-1391q0 -7 -5.5 -12.5t-13.5 -5.5h-108q-8 0 -13.5 5.5t-5.5 12.5v1287h-671v-1287q0 -7 -5.5 -12.5t-13.5 -5.5h-108q-8 0 -13.5 5.5t-5.5 12.5z" />
<glyph unicode="&#x420;" horiz-adv-x="1189" d="M184 18v1391q0 7 5.5 12.5t13.5 5.5h567q173 0 265.5 -103.5t92.5 -301.5q0 -202 -82.5 -308t-275.5 -106h-440v-590q0 -7 -5.5 -12.5t-13.5 -5.5h-108q-8 0 -13.5 5.5t-5.5 12.5zM330 731h440q77 0 118.5 22.5t62 85.5t20.5 183q0 116 -19.5 176t-61 83.5t-120.5 23.5 h-440v-574z" />
<glyph unicode="&#x421;" horiz-adv-x="1130" d="M129 727q0 151 14 263.5t46 194.5t77 135t114.5 85t150 44.5t190.5 12.5q184 0 356 -51q17 -7 10 -27l-26 -88q-1 -7 -8.5 -10.5t-12.5 -1.5q-141 51 -317 51q-98 0 -158 -6.5t-113.5 -30.5t-81 -62t-48 -109.5t-27 -164.5t-6.5 -235q0 -109 3.5 -188.5t14 -146.5 t24.5 -111t40.5 -78.5t55.5 -53t76.5 -30.5t97 -15.5t122.5 -3.5q178 0 317 50q5 2 12.5 -2t8.5 -11l26 -88q6 -19 -10 -26q-175 -52 -356 -52q-110 0 -190.5 12.5t-150 45t-114.5 87t-77 139t-46 200.5t-14 272z" />
<glyph unicode="&#x422;" horiz-adv-x="1021" d="M0 1323v86q0 7 5 12.5t13 5.5h986q8 0 13 -5.5t5 -12.5v-86q0 -7 -5 -12.5t-13 -5.5h-420v-1287q0 -7 -5.5 -12.5t-13.5 -5.5h-108q-8 0 -13.5 5.5t-5.5 12.5v1287h-420q-8 0 -13 5.5t-5 12.5z" />
<glyph unicode="&#x423;" horiz-adv-x="966" d="M6 1407q-3 8 1 15t13 8l101 24q20 4 24 -10l293 -791l45 -157l49 157l287 791q1 6 9.5 9t15.5 1l96 -24q9 -1 13 -8t1 -15l-440 -1182q-95 -254 -328 -254q-21 0 -24 21l-17 88q-3 7 2.5 13.5t12.5 6.5q42 0 71.5 4.5t55 19.5t42 33.5t35.5 57t33.5 78t36.5 108.5h-28 q-23 0 -29 17z" />
<glyph unicode="&#x424;" horiz-adv-x="1808" d="M123 719q0 127 14 219t43 155.5t76.5 101.5t110 54.5t149.5 16.5q83 0 176 -38.5t139 -97.5v279q0 7 5.5 12.5t13.5 5.5h108q8 0 13.5 -5.5t5.5 -12.5v-279q46 59 139 97.5t176 38.5q145 0 228.5 -49t124.5 -168t41 -330t-41 -329.5t-124.5 -167t-228.5 -48.5 q-84 0 -177 38t-138 97v-291q0 -7 -5.5 -12.5t-13.5 -5.5h-108q-8 0 -13.5 5.5t-5.5 12.5v291q-45 -59 -138 -97t-177 -38q-109 0 -180.5 25.5t-120.5 88.5t-70.5 167.5t-21.5 263.5zM283 719q0 -99 3.5 -162t16.5 -113.5t30.5 -75.5t53 -41.5t76.5 -21t108 -4.5 q136 0 260 68v702q-124 68 -260 68q-68 0 -108 -4t-76 -20.5t-53.5 -42t-30.5 -76t-16.5 -114t-3.5 -163.5zM977 369q124 -68 260 -68q67 0 108 4.5t76.5 21t53.5 42t31 75.5t16.5 113t3.5 162q0 75 -2 127.5t-8.5 98.5t-15 74.5t-26 52t-36.5 35.5t-51.5 20t-66 10t-83.5 2 q-136 0 -260 -68v-702z" />
<glyph unicode="&#x425;" horiz-adv-x="1165" d="M49 57l457 666l-445 649q-4 6 -2.5 15t7.5 14l84 51q5 4 14 3.5t12 -5.5l359 -535l47 -92l47 92l360 535q3 5 12.5 5.5t14.5 -3.5l84 -51q6 -4 7.5 -13.5t-3.5 -15.5l-447 -649l459 -666q10 -17 -4 -28l-82 -52q-5 -4 -14.5 -3t-14.5 6l-362 534l-57 107l-56 -107 l-362 -534q-5 -5 -13.5 -6t-13.5 3l-84 52q-14 11 -4 28z" />
<glyph unicode="&#x426;" horiz-adv-x="1429" d="M184 18v1391q0 7 5.5 12.5t13.5 5.5h108q8 0 13.5 -5.5t5.5 -12.5v-1286h671v1286q0 7 5.5 12.5t13.5 5.5h108q8 0 13.5 -5.5t5.5 -12.5v-1286h244q7 0 12.5 -5.5t5.5 -13.5l-41 -387q0 -7 -5 -12.5t-13 -5.5h-86q-8 0 -13.5 5.5t-5.5 12.5v283h-1042q-8 0 -13.5 5.5 t-5.5 12.5z" />
<glyph unicode="&#x427;" horiz-adv-x="1241" d="M133 963v446q0 7 5.5 12.5t13.5 5.5h108q8 0 13.5 -5.5t5.5 -12.5v-420q0 -70 2 -118.5t9.5 -90.5t16.5 -67.5t29.5 -46.5t41 -31t57.5 -17t74 -8.5t95 -1.5q180 0 307 68v733q0 7 5.5 12.5t13.5 5.5h108q8 0 13.5 -5.5t5.5 -12.5v-1391q0 -7 -5.5 -12.5t-13.5 -5.5h-108 q-8 0 -13.5 5.5t-5.5 12.5v598q-53 -56 -157 -99.5t-207 -43.5q-86 0 -148 12.5t-114.5 45t-84.5 87.5t-49.5 140.5t-17.5 204.5z" />
<glyph unicode="&#x428;" horiz-adv-x="1820" d="M184 18v1391q0 7 5.5 12.5t13.5 5.5h108q8 0 13.5 -5.5t5.5 -12.5v-1286h508v1286q0 7 5 12.5t13 5.5h109q7 0 12.5 -5.5t5.5 -12.5v-1286h508v1286q0 7 5.5 12.5t12.5 5.5h109q8 0 13 -5.5t5 -12.5v-1391q0 -8 -5 -13t-13 -5h-1415q-8 0 -13.5 5.5t-5.5 12.5z" />
<glyph unicode="&#x429;" horiz-adv-x="1918" d="M184 18v1391q0 7 5.5 12.5t13.5 5.5h108q8 0 13.5 -5.5t5.5 -12.5v-1286h508v1286q0 7 5 12.5t13 5.5h109q7 0 12.5 -5.5t5.5 -12.5v-1286h508v1286q0 7 5.5 12.5t12.5 5.5h109q8 0 13 -5.5t5 -12.5v-1286h244q7 0 12.5 -5.5t5.5 -13.5l-40 -387q0 -7 -5.5 -12.5 t-13.5 -5.5h-86q-7 0 -12.5 5.5t-5.5 12.5v283h-1532q-8 0 -13.5 5.5t-5.5 12.5z" />
<glyph unicode="&#x42a;" horiz-adv-x="1230" d="M20 1323v86q0 7 5.5 12.5t13.5 5.5h313q8 0 13.5 -5.5t5.5 -12.5v-590h440q194 0 276 -105.5t82 -307.5q0 -198 -92.5 -302t-265.5 -104h-567q-8 0 -13.5 5.5t-5.5 12.5v1287h-186q-8 0 -13.5 5.5t-5.5 12.5zM371 123h440q79 0 120.5 23.5t61 83.5t19.5 176 q0 120 -20.5 182.5t-61.5 85t-119 22.5h-440v-573z" />
<glyph unicode="&#x42b;" horiz-adv-x="1597" d="M184 18v1391q0 7 5.5 12.5t13.5 5.5h108q8 0 13.5 -5.5t5.5 -12.5v-590h440q194 0 276 -105.5t82 -307.5q0 -198 -92.5 -302t-265.5 -104h-567q-8 0 -13.5 5.5t-5.5 12.5zM330 123h440q79 0 120.5 23.5t61 83.5t19.5 176q0 120 -20.5 182.5t-61.5 85t-119 22.5h-440v-573 zM1268 18v1391q0 7 5 12.5t13 5.5h109q7 0 12.5 -5.5t5.5 -12.5v-1391q0 -8 -5.5 -13t-12.5 -5h-109q-8 0 -13 5t-5 13z" />
<glyph unicode="&#x42c;" horiz-adv-x="1189" d="M184 18v1391q0 7 5.5 12.5t13.5 5.5h108q8 0 13.5 -5.5t5.5 -12.5v-590h440q194 0 276 -105.5t82 -307.5q0 -198 -92.5 -302t-265.5 -104h-567q-8 0 -13.5 5.5t-5.5 12.5zM330 123h440q79 0 120.5 23.5t61 83.5t19.5 176q0 120 -20.5 182.5t-61.5 85t-119 22.5h-440v-573 z" />
<glyph unicode="&#x42d;" horiz-adv-x="1130" d="M43 49l27 88q1 7 8 11t12 2q139 -50 318 -50q71 0 120 3.5t95.5 14.5t76 29t56 50.5t40.5 74.5t25.5 105.5t15.5 139t5 179.5h-588q-7 0 -12.5 5.5t-5.5 13.5v86q0 7 5 12.5t13 5.5h586q-2 118 -10.5 198t-30.5 139.5t-50.5 93t-80.5 53.5t-110.5 26t-149.5 6 q-177 0 -318 -51q-5 -2 -12 1.5t-8 10.5l-27 88q-7 20 10 27q172 51 357 51q110 0 190.5 -12.5t149.5 -44.5t114 -85t77 -135t46 -194.5t14 -263.5q0 -188 -22 -318.5t-64 -216.5t-115.5 -134.5t-165 -67.5t-224.5 -19q-182 0 -357 52q-16 7 -10 26z" />
<glyph unicode="&#x42e;" horiz-adv-x="1853" d="M184 18v1391q0 7 5.5 12.5t13.5 5.5h108q8 0 13.5 -5.5t5.5 -12.5v-588h295q7 189 45 315.5t110.5 197.5t166 99.5t227.5 28.5q114 0 196 -18.5t152 -67t112.5 -131t66 -211t23.5 -307.5q0 -133 -12 -238t-34 -184t-57.5 -137t-78.5 -95.5t-102 -60.5t-122 -32t-144 -9 q-113 0 -194 18t-151 65.5t-112.5 129t-67 209t-26.5 305.5h-293v-680q0 -7 -5.5 -12.5t-13.5 -5.5h-108q-8 0 -13.5 5.5t-5.5 12.5zM782 727q0 -85 3 -154t9.5 -126.5t15.5 -102t24.5 -79.5t32 -59.5t41.5 -43t50.5 -29t62 -17t72 -8.5t83.5 -2q60 0 101.5 3.5t83 14.5 t68.5 30t52 51.5t39 77.5t25 109.5t15.5 146t4.5 188.5q0 104 -4.5 182.5t-15.5 141t-25 106.5t-39 75.5t-52 50t-68.5 29t-83 14t-101.5 3.5q-61 0 -103 -3.5t-84 -14t-69 -29t-52.5 -50t-40 -75.5t-25.5 -106.5t-15.5 -141t-4.5 -182.5z" />
<glyph unicode="&#x42f;" horiz-adv-x="1263" d="M27 80q0 8 5.5 13t12.5 5q57 0 102 46t75.5 115t59 140t69 131t89.5 78q-150 0 -227.5 113t-77.5 301q0 198 93 301.5t266 103.5h567q7 0 12.5 -5.5t5.5 -12.5v-1391q0 -8 -5.5 -13t-12.5 -5h-109q-8 0 -13 5t-5 13v590h-270q-50 0 -90.5 -21.5t-68.5 -58.5t-52.5 -84.5 t-45.5 -100t-43 -104.5t-50 -99.5t-62.5 -84.5t-84 -58.5t-110.5 -21.5q-7 0 -12.5 5.5t-5.5 13.5zM293 1022q0 -95 10 -152.5t36 -88.5t60.5 -40.5t94.5 -9.5h440v574h-440q-80 0 -121 -21.5t-60.5 -81.5t-19.5 -180z" />
<glyph unicode="&#x430;" horiz-adv-x="1069" d="M123 303q0 119 32 188.5t116 106.5t233 37q76 0 161 -43t119 -92v135q0 97 -10.5 152.5t-42 90.5t-80.5 46.5t-135 11.5q-61 0 -138 -12t-130 -31q-5 -2 -12.5 1.5t-8.5 10.5l-24 86q-7 20 10 27q140 45 303 45q151 0 235.5 -36.5t125.5 -129.5t41 -262v-508l28 -94 q7 -17 -12 -25l-94 -22q-6 -3 -13.5 0.5t-9.5 9.5l-33 110q-34 -49 -119 -92t-161 -43q-149 0 -233 37t-116 106.5t-32 188.5zM264 303q0 -86 19.5 -127.5t73.5 -59.5t167 -18q136 0 260 68v274q-124 68 -260 68q-113 0 -167 -18t-73.5 -59.5t-19.5 -127.5z" />
<glyph unicode="&#x431;" horiz-adv-x="1103" d="M135 723q0 265 43 410t140 206.5t274 61.5q142 0 291 47q5 2 12 -1.5t8 -10.5l21 -86q7 -20 -11 -27q-158 -47 -321 -47q-97 0 -156.5 -20t-96.5 -74t-51 -138.5t-14 -222.5v-94q128 135 340 135q203 0 290 -105t87 -339q0 -236 -101.5 -341.5t-336.5 -105.5 q-89 0 -152 14.5t-111 51.5t-77 90.5t-47 142t-24.5 194.5t-6.5 259zM274 668q1 -82 3 -146.5t7.5 -119t11.5 -95t17.5 -72.5t22.5 -54t29 -38t35 -25t43.5 -14t50.5 -6.5t59 -1.5q66 0 109 4t77.5 17.5t53 33t31 55.5t16.5 80.5t4 112.5q0 79 -3.5 129t-15.5 90.5t-29 61.5 t-50.5 35t-73 18t-103.5 4q-75 0 -155 -18t-140 -51z" />
<glyph unicode="&#x432;" horiz-adv-x="1042" d="M143 25v985q0 10 9 17t20 7h442q87 0 145.5 -20t88.5 -57.5t41.5 -79t11.5 -97.5q0 -88 -38 -146.5t-136 -80.5q205 -42 205 -260q0 -145 -76.5 -219t-222.5 -74h-461q-11 0 -20 7.5t-9 17.5zM276 113h353q91 0 121 35t30 147q0 121 -31.5 162t-125.5 41h-347v-385z M276 608h338q85 0 112.5 32.5t27.5 129.5q0 95 -26 123.5t-114 28.5h-338v-314z" />
<glyph unicode="&#x433;" horiz-adv-x="733" d="M143 25v985q0 10 8 17t19 7h580q10 0 17 -7t7 -17v-64q0 -10 -7 -17t-17 -7h-474v-897q0 -10 -7.5 -17.5t-18.5 -7.5h-80q-11 0 -19 7.5t-8 17.5z" />
<glyph unicode="&#x434;" horiz-adv-x="1230" d="M0 94q0 8 5.5 13.5t12.5 5.5h181q157 355 157 903q0 7 5.5 12.5t13.5 5.5h586q7 0 12.5 -5t5.5 -13v-903h205q7 0 12.5 -5.5t5.5 -13.5l-41 -356q0 -8 -5.5 -13.5t-12.5 -5.5h-80q-7 0 -13 5.5t-6 13.5v262h-886v-262q0 -8 -6 -13.5t-13 -5.5h-80q-7 0 -12.5 5.5 t-5.5 13.5zM324 113h522v809h-350q0 -196 -41 -409t-131 -400z" />
<glyph unicode="&#x435;" horiz-adv-x="1032" d="M123 522q0 207 44.5 325.5t133.5 167t240 48.5q75 0 129 -8.5t99.5 -31t74 -59.5t49 -95.5t29 -137t8.5 -186.5q0 -11 -9.5 -19t-19.5 -8h-637q0 -76 2.5 -130t10 -99.5t16.5 -74.5t28.5 -51.5t39.5 -34t55 -19t70 -9.5t89 -2q137 0 254 49q5 2 12.5 -1.5t8.5 -10.5 l24 -88q7 -20 -10 -27q-56 -22 -138 -35.5t-151 -13.5q-175 0 -271 50t-138.5 168t-42.5 333zM266 629h531q-2 70 -7 115.5t-17 83t-28.5 57.5t-47 33.5t-68 17.5t-94.5 4q-111 0 -163.5 -23t-76.5 -87t-29 -201z" />
<glyph unicode="&#x436;" horiz-adv-x="1538" d="M94 70q0 7 5.5 12.5t13.5 5.5q45 0 82 26t62 66.5t54.5 92.5t57.5 101.5t72.5 96.5t97.5 74q-62 32 -109 86t-74.5 106t-57.5 100.5t-75.5 78.5t-109.5 30q-7 0 -13 6t-6 13l10 79q0 8 6 13.5t13 5.5q74 0 126.5 -18t85 -50.5t56.5 -73t50 -90t55.5 -97t82.5 -98 t123 -89.5v469q0 7 5.5 12.5t13.5 5.5h96q8 0 13.5 -5.5t5.5 -12.5v-469q70 39 123 89.5t82.5 98t55.5 97t50 90t56.5 73t85 50.5t126.5 18q7 0 13 -5.5t6 -13.5l10 -79q0 -7 -6 -13t-13 -6q-64 0 -109.5 -30t-75.5 -78.5t-57.5 -100.5t-74.5 -106t-109 -86q53 -27 97.5 -74 t72.5 -96.5t57.5 -101.5t54.5 -92.5t62 -66.5t82 -26q8 0 13.5 -5.5t5.5 -12.5l-10 -80q0 -8 -6 -13.5t-13 -5.5q-74 0 -126.5 20t-85 56t-57 81t-50 98t-55 104t-82.5 104t-123 92v-508q0 -7 -5.5 -12.5t-13.5 -5.5h-96q-8 0 -13.5 5.5t-5.5 12.5v508q-70 -39 -123 -92 t-82.5 -104t-55 -104t-50 -98t-57 -81t-85 -56t-126.5 -20q-7 0 -13 5.5t-6 13.5z" />
<glyph unicode="&#x437;" horiz-adv-x="913" d="M74 37l18 72q1 8 10.5 13t16.5 3q116 -37 268 -37q93 0 145 7.5t83 32t40 61t9 102.5q0 46 -3 75t-13.5 54t-27 38.5t-46.5 23.5t-69 13t-97 3h-136q-9 0 -16.5 5.5t-7.5 14.5v68q0 9 7.5 15.5t16.5 6.5h136q55 0 90.5 2t63.5 10t42.5 18.5t24 31.5t12 45t2.5 63 q0 68 -18.5 101.5t-70.5 49t-159 15.5q-147 0 -280 -35q-6 -2 -16 3t-13 12l-12 77q-3 8 2 17t14 12q142 33 305 33q96 0 166.5 -13.5t113 -37t68 -60t34.5 -76t9 -92.5q0 -95 -33 -149t-126 -76q102 -20 143 -86.5t41 -175.5q0 -116 -38.5 -185.5t-132 -105t-253.5 -35.5 q-148 0 -301 39q-15 8 -12 27z" />
<glyph unicode="&#x438;" horiz-adv-x="1073" d="M143 18v998q0 7 5.5 12.5t13.5 5.5h96q8 0 13 -5t5 -13v-686l-8 -152l70 137l448 701q0 7 5.5 12.5t13.5 5.5h106q8 0 13.5 -5.5t5.5 -12.5v-998q0 -7 -5.5 -12.5t-13.5 -5.5h-96q-7 0 -12.5 5t-5.5 13v695l12 155l-70 -141l-454 -709q0 -7 -5.5 -12.5t-13.5 -5.5h-104 q-8 0 -13.5 5.5t-5.5 12.5z" />
<glyph unicode="&#x439;" horiz-adv-x="1073" d="M143 18v998q0 7 5.5 12.5t13.5 5.5h96q8 0 13 -5t5 -13v-686l-8 -152l70 137l448 701q0 7 5.5 12.5t13.5 5.5h106q8 0 13.5 -5.5t5.5 -12.5v-998q0 -7 -5.5 -12.5t-13.5 -5.5h-96q-7 0 -12.5 5t-5.5 13v695l12 155l-70 -141l-454 -709q0 -7 -5.5 -12.5t-13.5 -5.5h-104 q-8 0 -13.5 5.5t-5.5 12.5zM268 1409q0 7 7.5 12.5t15.5 5.5h90q8 0 14 -5.5t6 -12.5q0 -27 0.5 -40t2 -32t5 -27t10 -19.5t16.5 -16t24.5 -9.5t34 -6.5t45.5 -1.5q35 0 58 2.5t38.5 12t23.5 17.5t12 30t4.5 38t0.5 52q0 7 6 12.5t14 5.5h90q8 0 15.5 -5.5t7.5 -12.5 q0 -131 -66 -187.5t-206 -56.5q-137 0 -203 57t-66 187z" />
<glyph unicode="&#x43a;" horiz-adv-x="1011" d="M143 18v998q0 7 5.5 12.5t13.5 5.5h96q8 0 13 -5t5 -13v-467q70 39 125 89.5t88.5 98t64 96.5t59 89.5t64.5 72.5t91 50t129 18q7 0 12.5 -5.5t5.5 -13.5l11 -79q0 -7 -6 -13t-13 -6q-55 0 -99 -21.5t-73.5 -55.5t-62 -79t-61 -87.5t-73.5 -85.5t-98 -70q62 -32 117 -92 t93 -121t75.5 -117.5t83 -92.5t98.5 -36q8 0 13.5 -5.5t5.5 -12.5l-11 -80q0 -8 -5.5 -13.5t-12.5 -5.5q-74 0 -129 20.5t-91 56.5t-64.5 80.5t-59 98.5t-64 105t-88.5 104t-125 92v-510q0 -8 -5 -13t-13 -5h-96q-8 0 -13.5 5.5t-5.5 12.5z" />
<glyph unicode="&#x43b;" horiz-adv-x="1058" d="M70 31q86 170 131 329.5t58 301t13 354.5q0 7 5.5 12.5t13.5 5.5h606q7 0 12.5 -5t5.5 -13v-998q0 -8 -5.5 -13t-12.5 -5h-96q-8 0 -13.5 5.5t-5.5 12.5v904h-376q0 -198 -46.5 -451t-140.5 -467q-7 -18 -24 -18l-111 20q-8 0 -13 9t-1 16z" />
<glyph unicode="&#x43c;" horiz-adv-x="1331" d="M143 18v998q0 7 5.5 12.5t13.5 5.5h176q8 0 13 -5t5 -13l310 -803l309 803q0 8 5.5 13t12.5 5h176q8 0 13.5 -5.5t5.5 -12.5v-998q0 -7 -5.5 -12.5t-13.5 -5.5h-96q-7 0 -12.5 5t-5.5 13v871l-310 -789q-9 -18 -24 -18h-113q-15 0 -24 18l-308 789v-871q0 -8 -5 -13 t-13 -5h-96q-8 0 -13.5 5.5t-5.5 12.5z" />
<glyph unicode="&#x43d;" horiz-adv-x="1073" d="M143 18v998q0 7 5.5 12.5t13.5 5.5h96q8 0 13 -5t5 -13v-408h521v408q0 8 5.5 13t12.5 5h96q8 0 13.5 -5.5t5.5 -12.5v-998q0 -7 -5.5 -12.5t-13.5 -5.5h-96q-7 0 -12.5 5t-5.5 13v480h-521v-480q0 -8 -5 -13t-13 -5h-96q-8 0 -13.5 5.5t-5.5 12.5z" />
<glyph unicode="&#x43e;" horiz-adv-x="1110" d="M123 522q0 160 22 263t75 165.5t132.5 87.5t202.5 25t202.5 -25t132.5 -87.5t75 -165.5t22 -263q0 -161 -21.5 -265t-74 -169t-132.5 -91t-204 -26t-204 26t-132.5 91t-74 169t-21.5 265zM270 518q0 -102 3.5 -166.5t17 -114.5t30.5 -75t53.5 -41t75 -19.5t105.5 -3.5 t105.5 3.5t75 19.5t53.5 41t30.5 75t17 114.5t3.5 166.5q0 98 -4 161t-17 112.5t-30.5 75.5t-52.5 43t-75.5 21.5t-105.5 4.5t-105.5 -4.5t-75.5 -21.5t-52.5 -43t-30.5 -75.5t-17 -112.5t-4 -161z" />
<glyph unicode="&#x43f;" horiz-adv-x="1073" d="M143 18v998q0 7 5.5 12.5t13.5 5.5h749q8 0 13.5 -5.5t5.5 -12.5v-998q0 -7 -5.5 -12.5t-13.5 -5.5h-96q-7 0 -12.5 5t-5.5 13v904h-521v-904q0 -8 -5 -13t-13 -5h-96q-8 0 -13.5 5.5t-5.5 12.5z" />
<glyph unicode="&#x440;" horiz-adv-x="1103" d="M143 -375v1391q0 7 5.5 12.5t13.5 5.5h96q8 0 13 -5t5 -13v-88q46 60 133 97.5t169 37.5q145 0 228.5 -48t125 -167t41.5 -330q0 -159 -21.5 -263.5t-71 -168t-121.5 -89.5t-181 -26q-82 0 -169 37.5t-133 97.5v-481q0 -7 -5 -12.5t-13 -5.5h-96q-8 0 -13.5 5.5 t-5.5 12.5zM276 166q124 -68 261 -68q68 0 108 4t76 20.5t53.5 42t30.5 76t16.5 114t3.5 163.5q0 99 -3.5 162t-16.5 113.5t-30.5 75.5t-53 41.5t-76.5 21t-108 4.5q-137 0 -261 -68v-702z" />
<glyph unicode="&#x441;" horiz-adv-x="899" d="M123 522q0 160 22.5 263t75.5 165.5t133 87.5t203 25q68 0 148.5 -12t132.5 -31q17 -7 10 -27l-25 -88q-1 -7 -8 -10.5t-12 -1.5q-105 43 -246 43q-65 0 -105.5 -4.5t-76 -21.5t-53.5 -43t-31 -75.5t-17 -112.5t-4 -161q0 -76 2 -130t9 -99.5t15.5 -74.5t26.5 -51.5 t36.5 -34t51 -19t64.5 -9.5t82 -2q141 0 246 43q5 2 12 -1.5t8 -10.5l25 -88q7 -20 -10 -27q-52 -19 -132.5 -31t-148.5 -12q-124 0 -204 26t-133 91t-75 169t-22 265z" />
<glyph unicode="&#x442;" horiz-adv-x="890" d="M0 940v76q0 8 5 13t13 5h854q8 0 13.5 -5.5t5.5 -12.5v-76q0 -7 -5.5 -12.5t-13.5 -5.5h-360v-904q0 -8 -5 -13t-13 -5h-97q-7 0 -12.5 5t-5.5 13v904h-361q-8 0 -13 5t-5 13z" />
<glyph unicode="&#x443;" horiz-adv-x="944" d="M45 999q-3 7 0.5 14t11.5 9l99 25q6 2 13.5 -1.5t8.5 -9.5l264 -790l31 -154l39 154l258 790q1 6 9 9.5t14 1.5l94 -25q8 -2 11.5 -9t0.5 -14l-389 -1161q-85 -254 -295 -254q-19 0 -22 21l-15 88q-3 7 1.5 13.5t10.5 6.5q39 0 64 3.5t47.5 17t36.5 30t30.5 53.5t29 75.5 t32.5 107.5h-24q-22 0 -27 16z" />
<glyph unicode="&#x444;" horiz-adv-x="1787" d="M131 516q0 158 22.5 263.5t71 168.5t117.5 89t170 26q84 0 177 -38t138 -97v481q0 7 5.5 12.5t13.5 5.5h96q8 0 13.5 -5.5t5.5 -12.5v-481q45 59 138 97t177 38q101 0 170 -26t117.5 -89t71 -168.5t22.5 -263.5t-22.5 -263.5t-71 -167.5t-117.5 -88t-170 -26 q-84 0 -177 38t-138 97v-481q0 -7 -5.5 -12.5t-13.5 -5.5h-96q-8 0 -13.5 5.5t-5.5 12.5v481q-45 -59 -138 -97t-177 -38q-101 0 -170 26t-117.5 88t-71 167.5t-22.5 263.5zM279 516q0 -99 3.5 -162t16.5 -113.5t30.5 -75.5t53 -41.5t76.5 -21t108 -4.5q136 0 260 68v702 q-124 68 -260 68q-68 0 -108 -4t-76 -20.5t-53.5 -42t-30.5 -76t-16.5 -114t-3.5 -163.5zM961 166q124 -68 260 -68q67 0 108 4.5t76.5 21t53 41.5t30.5 75.5t16.5 113.5t3.5 162q0 100 -3.5 163.5t-16.5 114t-30.5 76t-53.5 42t-76 20.5t-108 4q-136 0 -260 -68v-702z" />
<glyph unicode="&#x445;" horiz-adv-x="927" d="M61 49l328 475l-315 461q-4 6 -3 14t7 13l80 47q5 4 13 3.5t11 -5.5l238 -355l43 -84l43 84l239 355q3 5 11.5 5.5t13.5 -3.5l80 -47q6 -5 7 -13t-3 -14l-317 -461l329 -475q11 -15 -4 -26l-80 -48q-5 -4 -13 -3.5t-11 5.5l-242 355l-53 98l-51 -98l-242 -355 q-3 -5 -11.5 -5.5t-13.5 3.5l-79 48q-16 12 -5 26z" />
<glyph unicode="&#x446;" horiz-adv-x="1153" d="M143 18v998q0 7 5.5 12.5t13.5 5.5h96q8 0 13 -5t5 -13v-903h521v903q0 8 5.5 13t12.5 5h96q8 0 13.5 -5.5t5.5 -12.5v-903h205q7 0 12.5 -5.5t5.5 -13.5l-41 -356q0 -8 -5.5 -13.5t-12.5 -5.5h-80q-8 0 -13.5 5.5t-5.5 13.5v262h-833q-8 0 -13.5 5.5t-5.5 12.5z" />
<glyph unicode="&#x447;" horiz-adv-x="1050" d="M102 807v209q0 7 5.5 12.5t13.5 5.5h96q8 0 13.5 -5.5t5.5 -12.5v-182q0 -69 1.5 -115.5t7.5 -89t13.5 -67.5t24 -46t34.5 -31t49.5 -17.5t64 -9t83.5 -1.5q142 0 260 65v494q0 7 5.5 12.5t13.5 5.5h96q7 0 12.5 -5t5.5 -13v-998q0 -8 -5.5 -13t-12.5 -5h-96 q-8 0 -13.5 5.5t-5.5 12.5v445q-52 -58 -134 -96.5t-181 -38.5q-98 0 -160.5 19t-109.5 71.5t-67 146.5t-20 242z" />
<glyph unicode="&#x448;" horiz-adv-x="1521" d="M143 18v998q0 7 5.5 12.5t13.5 5.5h96q8 0 13 -5t5 -13v-903h418v903q0 7 5.5 12.5t13.5 5.5h96q7 0 12.5 -5t5.5 -13v-903h418v903q0 7 5.5 12.5t13.5 5.5h96q8 0 13 -5t5 -13v-998q0 -8 -5 -13t-13 -5h-1198q-8 0 -13.5 5.5t-5.5 12.5z" />
<glyph unicode="&#x449;" horiz-adv-x="1601" d="M143 18v998q0 7 5.5 12.5t13.5 5.5h96q8 0 13 -5t5 -13v-903h418v903q0 7 5.5 12.5t13.5 5.5h96q7 0 12.5 -5t5.5 -13v-903h418v903q0 7 5.5 12.5t13.5 5.5h96q8 0 13 -5t5 -13v-903h205q7 0 13 -5.5t6 -13.5l-41 -356q0 -8 -5.5 -13.5t-13.5 -5.5h-80q-7 0 -12.5 5.5 t-5.5 13.5v262h-1282q-8 0 -13.5 5.5t-5.5 12.5z" />
<glyph unicode="&#x44a;" horiz-adv-x="1107" d="M0 940v76q0 8 5 13t13 5h306q8 0 13 -5t5 -13v-408h334q163 0 240 -68.5t77 -230.5q0 -147 -77.5 -228t-221.5 -81h-456q-11 0 -20 7.5t-9 17.5v897h-191q-8 0 -13 5t-5 13zM342 113h348q92 0 122 35.5t30 146.5q0 121 -32 162t-126 41h-342v-385z" />
<glyph unicode="&#x44b;" horiz-adv-x="1341" d="M143 25v991q0 7 5.5 12.5t13.5 5.5h96q8 0 13 -5t5 -13v-408h334q163 0 240.5 -68.5t77.5 -230.5q0 -147 -77.5 -228t-221.5 -81h-457q-11 0 -20 7.5t-9 17.5zM276 113h349q91 0 121 35t30 147q0 121 -32 162t-126 41h-342v-385zM1065 18v998q0 8 5.5 13t12.5 5h97 q8 0 13 -5t5 -13v-998q0 -8 -5 -13t-13 -5h-97q-7 0 -12.5 5t-5.5 13z" />
<glyph unicode="&#x44c;" horiz-adv-x="1042" d="M143 25v991q0 7 5.5 12.5t13.5 5.5h96q8 0 13 -5t5 -13v-408h334q163 0 240.5 -68.5t77.5 -230.5q0 -147 -77.5 -228t-221.5 -81h-457q-11 0 -20 7.5t-9 17.5zM276 113h349q91 0 121 35t30 147q0 121 -32 162t-126 41h-342v-385z" />
<glyph unicode="&#x44d;" horiz-adv-x="921" d="M74 41l24 88q1 7 8.5 10.5t12.5 1.5q105 -43 246 -43q66 0 104.5 3.5t74.5 18.5t53 39t31 71.5t18 109.5t5 158h-440q-7 0 -12.5 5t-5.5 13v74q0 8 5.5 13t12.5 5h438q-2 74 -8 124.5t-20.5 88.5t-33.5 59.5t-53 34.5t-72 17t-97 4q-141 0 -246 -43q-5 -2 -12.5 1.5 t-8.5 10.5l-24 88q-7 20 10 27q52 19 132.5 31t148.5 12q123 0 203 -25t133 -87.5t75.5 -165.5t22.5 -263q0 -161 -22 -265t-75 -169t-133 -91t-204 -26q-68 0 -148.5 12t-132.5 31q-17 7 -10 27z" />
<glyph unicode="&#x44e;" horiz-adv-x="1486" d="M143 18v998q0 7 5.5 12.5t13.5 5.5h96q8 0 13 -5t5 -13v-408h226q7 176 53 275t135 139.5t242 40.5q123 0 202.5 -25t132.5 -87.5t75 -165.5t22 -263q0 -161 -21.5 -265t-74 -169t-132.5 -91t-204 -26q-162 0 -253 47.5t-134 161t-45 318.5h-224v-480q0 -8 -5 -13t-13 -5 h-96q-8 0 -13.5 5.5t-5.5 12.5zM647 518q0 -102 3.5 -166.5t17 -114.5t30.5 -75t53.5 -41t75 -19.5t105.5 -3.5t105.5 3.5t75 19.5t53.5 41t30.5 75t17 114.5t3.5 166.5q0 98 -4 161t-17 112.5t-30.5 75.5t-52.5 43t-75.5 21.5t-105.5 4.5t-105.5 -4.5t-75.5 -21.5 t-52.5 -43t-30.5 -75.5t-17 -112.5t-4 -161z" />
<glyph unicode="&#x44f;" horiz-adv-x="1073" d="M72 72q0 8 5 13t13 5q52 0 88 35.5t57.5 87.5t43.5 104.5t60.5 94t94.5 49.5q-114 0 -188 72.5t-74 199.5q0 51 6.5 91.5t25.5 81t50 67.5t83 44t122 17h442q11 0 20 -7t9 -17v-992q0 -7 -5.5 -12.5t-13.5 -5.5h-96q-7 0 -12.5 5t-5.5 13v428h-201q-57 0 -97 -26 t-62.5 -68t-40.5 -92.5t-39 -100.5t-50 -92t-81.5 -68t-125.5 -26q-7 0 -12.5 5.5t-5.5 13.5zM319 743q0 -108 28 -147t112 -39h338v365h-338q-86 0 -113 -36t-27 -143z" />
<glyph unicode="&#x451;" horiz-adv-x="1032" d="M123 522q0 207 44.5 325.5t133.5 167t240 48.5q75 0 129 -8.5t99.5 -31t74 -59.5t49 -95.5t29 -137t8.5 -186.5q0 -11 -9.5 -19t-19.5 -8h-637q0 -76 2.5 -130t10 -99.5t16.5 -74.5t28.5 -51.5t39.5 -34t55 -19t70 -9.5t89 -2q137 0 254 49q5 2 12.5 -1.5t8.5 -10.5 l24 -88q7 -20 -10 -27q-56 -22 -138 -35.5t-151 -13.5q-175 0 -271 50t-138.5 168t-42.5 333zM266 629h531q-2 70 -7 115.5t-17 83t-28.5 57.5t-47 33.5t-68 17.5t-94.5 4q-111 0 -163.5 -23t-76.5 -87t-29 -201zM272 1286q0 51 17 65.5t69 14.5q50 0 67 -15t17 -65 q0 -55 -17.5 -71.5t-66.5 -16.5q-51 0 -68.5 16.5t-17.5 71.5zM639 1286q0 51 17 65.5t69 14.5q50 0 67 -15t17 -65q0 -55 -17.5 -71.5t-66.5 -16.5q-51 0 -68.5 16.5t-17.5 71.5z" />
<glyph unicode="&#x452;" horiz-adv-x="1099" d="M51 1243v82q0 7 5.5 12.5t13.5 5.5h102v101q0 8 5 13t13 5h97q7 0 12.5 -5t5.5 -13v-101h236q7 0 12.5 -5.5t5.5 -12.5v-82q0 -7 -5.5 -12.5t-12.5 -5.5h-236v-297q52 58 134.5 96.5t181.5 38.5q98 0 160.5 -19t109 -71.5t66.5 -146.5t20 -242v-641q0 -166 -85 -262.5 t-216 -96.5q-20 0 -23 21l-14 88q-6 15 12 20q66 8 99.5 18t57 36t30 65t6.5 111v614q0 95 -2.5 152t-15.5 103.5t-28 68t-51 36t-74 17t-108 2.5q-136 0 -260 -68v-850q0 -8 -5.5 -13t-12.5 -5h-97q-8 0 -13 5t-5 13v1207h-102q-8 0 -13.5 5.5t-5.5 12.5z" />
<glyph unicode="&#x453;" horiz-adv-x="716" d="M127 25v985q0 10 8 17t19 7h579q11 0 18 -7t7 -17v-64q0 -10 -7 -17t-18 -7h-473v-897q0 -10 -8 -17.5t-19 -7.5h-79q-11 0 -19 7.5t-8 17.5zM356.5 1195.5q-1.5 8.5 3.5 14.5l213 236q14 14 35 6l82 -43q9 -3 9.5 -14t-7.5 -17l-243 -229q-12 -9 -29 -2l-55 37 q-7 3 -8.5 11.5z" />
<glyph unicode="&#x454;" horiz-adv-x="921" d="M123 522q0 160 22.5 263t75.5 165.5t133 87.5t203 25q68 0 148.5 -12t132.5 -31q17 -7 10 -27l-25 -88q-1 -7 -8 -10.5t-12 -1.5q-105 43 -246 43q-59 0 -97 -4t-72 -17t-53 -34.5t-34 -59t-21 -88.5t-8 -125h439q7 0 12.5 -5t5.5 -13v-74q0 -8 -5.5 -13t-12.5 -5h-441 q1 -96 5 -158t18 -109t31.5 -71.5t53.5 -39.5t74.5 -18.5t104.5 -3.5q141 0 246 43q5 2 12 -1.5t8 -10.5l25 -88q7 -20 -10 -27q-52 -19 -132.5 -31t-148.5 -12q-124 0 -204 26t-133 91t-75 169t-22 265z" />
<glyph unicode="&#x455;" horiz-adv-x="950" d="M115 756q0 150 88.5 228.5t283.5 78.5q141 0 293 -43q18 -7 11 -27l-25 -88q-1 -7 -8.5 -10.5t-12.5 -1.5q-122 47 -264 47q-138 0 -179.5 -36t-41.5 -148q0 -61 16.5 -89.5t63.5 -45.5t152 -31q195 -26 272.5 -94.5t77.5 -200.5q0 -161 -88 -242.5t-287 -81.5 q-182 0 -336 43q-7 1 -10 9.5t0 17.5l24 88q1 7 8.5 10.5t12.5 1.5q136 -49 307 -49q134 0 178.5 39.5t44.5 161.5q0 39 -4.5 61.5t-16 42t-38 31.5t-63.5 21t-99 18q-192 29 -276 92t-84 197z" />
<glyph unicode="&#x456;" horiz-adv-x="421" d="M127 1346q0 51 16 64t68 13q50 0 67 -13.5t17 -63.5q0 -55 -17 -70.5t-67 -15.5q-51 0 -67.5 15.5t-16.5 70.5zM143 18v998q0 7 5.5 12.5t13.5 5.5h96q8 0 13 -5t5 -13v-998q0 -8 -5 -13t-13 -5h-96q-8 0 -13.5 5.5t-5.5 12.5z" />
<glyph unicode="&#x457;" horiz-adv-x="421" d="M-57 1286q0 51 17 65.5t69 14.5q50 0 67 -15t17 -65q0 -55 -17.5 -71.5t-66.5 -16.5q-51 0 -68.5 16.5t-17.5 71.5zM143 18v998q0 7 5.5 12.5t13.5 5.5h96q8 0 13 -5t5 -13v-998q0 -8 -5 -13t-13 -5h-96q-8 0 -13.5 5.5t-5.5 12.5zM309 1286q0 51 17 65.5t69 14.5 q50 0 67 -15t17 -65q0 -55 -17.5 -71.5t-66.5 -16.5q-51 0 -68.5 16.5t-17.5 71.5z" />
<glyph unicode="&#x458;" horiz-adv-x="421" d="M-61 -307q-6 15 12 20q66 8 99.5 18t56.5 36t29.5 65t6.5 111v1073q0 7 5.5 12.5t13.5 5.5h96q8 0 13 -5t5 -13v-1073q0 -166 -85 -262.5t-216 -96.5q-19 0 -22 21zM127 1346q0 51 16 64t68 13q50 0 67 -13.5t17 -63.5q0 -55 -17 -70.5t-67 -15.5q-51 0 -67.5 15.5 t-16.5 70.5z" />
<glyph unicode="&#x459;" horiz-adv-x="1671" d="M63 25q125 249 167 464.5t42 526.5q0 7 5.5 12.5t13.5 5.5h596q7 0 12.5 -5t5.5 -13v-408h334q163 0 240 -68.5t77 -230.5q0 -147 -77.5 -228t-221.5 -81h-456q-8 0 -13.5 5.5t-5.5 12.5v904h-376q0 -201 -44 -446t-137 -458q-7 -18 -24 -18h-123q-8 0 -13.5 9t-1.5 16z M905 113h348q92 0 122 35.5t30 146.5q0 121 -32 162t-126 41h-342v-385z" />
<glyph unicode="&#x45a;" horiz-adv-x="1685" d="M143 18v998q0 7 5.5 12.5t13.5 5.5h96q8 0 13 -5t5 -13v-408h521v408q0 8 5.5 13t12.5 5h86q8 0 13.5 -5.5t5.5 -12.5v-408h333q163 0 240.5 -68.5t77.5 -230.5q0 -147 -77.5 -228t-221.5 -81h-457q-7 0 -12.5 5t-5.5 13v480h-521v-480q0 -8 -5 -13t-13 -5h-96 q-8 0 -13.5 5.5t-5.5 12.5zM920 113h348q91 0 121 35t30 147q0 121 -31.5 162t-125.5 41h-342v-385z" />
<glyph unicode="&#x45b;" horiz-adv-x="1099" d="M51 1243v82q0 7 5.5 12.5t13.5 5.5h102v101q0 8 5 13t13 5h97q7 0 12.5 -5t5.5 -13v-101h236q7 0 12.5 -5.5t5.5 -12.5v-82q0 -7 -5.5 -12.5t-12.5 -5.5h-236v-297q52 58 134.5 96.5t181.5 38.5q98 0 160.5 -19t109 -71.5t66.5 -146.5t20 -242v-566q0 -7 -5.5 -12.5 t-13.5 -5.5h-96q-8 0 -13 5t-5 13v539q0 95 -2.5 152t-15.5 103.5t-28 68t-51 36t-74 17t-108 2.5q-136 0 -260 -68v-850q0 -8 -5.5 -13t-12.5 -5h-97q-8 0 -13 5t-5 13v1207h-102q-8 0 -13.5 5.5t-5.5 12.5z" />
<glyph unicode="&#x45c;" horiz-adv-x="1011" d="M143 18v998q0 7 5.5 12.5t13.5 5.5h96q8 0 13 -5t5 -13v-467q70 39 125 89.5t88.5 98t64 96.5t59 89.5t64.5 72.5t91 50t129 18q7 0 12.5 -5.5t5.5 -13.5l11 -79q0 -7 -6 -13t-13 -6q-55 0 -99 -21.5t-73.5 -55.5t-62 -79t-61 -87.5t-73.5 -85.5t-98 -70q62 -32 117 -92 t93 -121t75.5 -117.5t83 -92.5t98.5 -36q8 0 13.5 -5.5t5.5 -12.5l-11 -80q0 -8 -5.5 -13.5t-12.5 -5.5q-74 0 -129 20.5t-91 56.5t-64.5 80.5t-59 98.5t-64 105t-88.5 104t-125 92v-510q0 -8 -5 -13t-13 -5h-96q-8 0 -13.5 5.5t-5.5 12.5zM434 1195.5q-1 8.5 4 14.5 l213 236q14 14 35 6l82 -43q9 -3 9.5 -14t-7.5 -17l-244 -229q-11 -9 -28 -2l-56 37q-7 3 -8 11.5z" />
<glyph unicode="&#x45e;" horiz-adv-x="944" d="M45 999q-3 7 0.5 14t11.5 9l99 25q6 2 13.5 -1.5t8.5 -9.5l264 -790l31 -154l39 154l258 790q1 6 9 9.5t14 1.5l94 -25q8 -2 11.5 -9t0.5 -14l-389 -1161q-85 -254 -295 -254q-19 0 -22 21l-15 88q-3 7 1.5 13.5t10.5 6.5q39 0 64 3.5t47.5 17t36.5 30t30.5 53.5t29 75.5 t32.5 107.5h-24q-22 0 -27 16zM203 1409q0 7 7 12.5t15 5.5h90q8 0 14.5 -5.5t6.5 -12.5q0 -36 0.5 -52t4.5 -38t12 -30t23.5 -17.5t38.5 -12t58 -2.5t58 2.5t38.5 12t23.5 17.5t12 30t4.5 38t0.5 52q0 7 6.5 12.5t14.5 5.5h90q8 0 15 -5.5t7 -12.5q0 -131 -66 -187.5 t-206 -56.5q-137 0 -202.5 56.5t-65.5 187.5z" />
<glyph unicode="&#x45f;" horiz-adv-x="1136" d="M143 18v998q0 7 5.5 12.5t13.5 5.5h96q8 0 13 -5t5 -13v-903h521v903q0 8 5.5 13t12.5 5h96q8 0 13.5 -5.5t5.5 -12.5v-998q0 -7 -5.5 -12.5t-13.5 -5.5h-305l-18 -223q0 -7 -6 -13t-13 -6h-63q-8 0 -13.5 6t-5.5 13l-20 223h-305q-8 0 -13.5 5.5t-5.5 12.5z" />
<glyph unicode="&#x490;" horiz-adv-x="956" d="M184 18v1391q0 7 5.5 12.5t13.5 5.5h653l21 201q0 8 5.5 13.5t12.5 5.5h66q7 0 12.5 -5.5t5.5 -13.5v-305q0 -7 -5.5 -12.5t-12.5 -5.5h-631v-1287q0 -7 -5.5 -12.5t-13.5 -5.5h-108q-8 0 -13.5 5.5t-5.5 12.5z" />
<glyph unicode="&#x491;" horiz-adv-x="716" d="M127 25v985q0 10 8 17t19 7h505l17 170q0 8 5.5 13.5t12.5 5.5h62q7 0 12.5 -5.5t5.5 -13.5v-264q0 -8 -5 -13t-13 -5h-496v-897q0 -10 -8 -17.5t-19 -7.5h-79q-11 0 -19 7.5t-8 17.5z" />
<glyph unicode="&#x2000;" horiz-adv-x="908" />
<glyph unicode="&#x2001;" horiz-adv-x="1817" />
<glyph unicode="&#x2002;" horiz-adv-x="908" />
<glyph unicode="&#x2003;" horiz-adv-x="1817" />
<glyph unicode="&#x2004;" horiz-adv-x="605" />
<glyph unicode="&#x2005;" horiz-adv-x="454" />
<glyph unicode="&#x2006;" horiz-adv-x="302" />
<glyph unicode="&#x2007;" horiz-adv-x="302" />
<glyph unicode="&#x2008;" horiz-adv-x="227" />
<glyph unicode="&#x2009;" horiz-adv-x="363" />
<glyph unicode="&#x200a;" horiz-adv-x="100" />
<glyph unicode="&#x2010;" horiz-adv-x="663" d="M109 520v88q0 8 5.5 13.5t12.5 5.5h410q7 0 12.5 -5.5t5.5 -13.5v-88q0 -8 -5.5 -13t-12.5 -5h-410q-7 0 -12.5 5t-5.5 13z" />
<glyph unicode="&#x2011;" horiz-adv-x="663" d="M109 520v88q0 8 5.5 13.5t12.5 5.5h410q7 0 12.5 -5.5t5.5 -13.5v-88q0 -8 -5.5 -13t-12.5 -5h-410q-7 0 -12.5 5t-5.5 13z" />
<glyph unicode="&#x2012;" horiz-adv-x="663" d="M109 520v88q0 8 5.5 13.5t12.5 5.5h410q7 0 12.5 -5.5t5.5 -13.5v-88q0 -8 -5.5 -13t-12.5 -5h-410q-7 0 -12.5 5t-5.5 13z" />
<glyph unicode="&#x2013;" horiz-adv-x="1114" d="M109 520v88q0 8 5.5 13.5t12.5 5.5h860q7 0 13 -5.5t6 -13.5v-88q0 -7 -5.5 -12.5t-13.5 -5.5h-860q-7 0 -12.5 5t-5.5 13z" />
<glyph unicode="&#x2014;" horiz-adv-x="1714" d="M109 520v88q0 8 5.5 13.5t12.5 5.5h1462q7 0 13 -5.5t6 -13.5v-88q0 -7 -5.5 -12.5t-13.5 -5.5h-1462q-7 0 -12.5 5t-5.5 13z" />
<glyph unicode="&#x2018;" horiz-adv-x="524" d="M150 1051l108 399q3 8 10.5 15.5t14.5 7.5h53q8 0 12.5 -6.5t3.5 -16.5l-53 -422q-1 -10 -10 -16t-19 -6l-98 16q-13 0 -19 9.5t-3 19.5z" />
<glyph unicode="&#x2019;" horiz-adv-x="524" d="M150 1028l53 422q1 10 9.5 16.5t18.5 6.5l99 -17q13 0 19 -9.5t3 -19.5l-108 -399q-9 -22 -25 -22h-53q-19 0 -16 22z" />
<glyph unicode="&#x201a;" horiz-adv-x="524" d="M150 -262l53 422q1 10 9.5 16t18.5 6l99 -16q13 0 19 -9.5t3 -19.5l-108 -399q-3 -8 -10.5 -15.5t-14.5 -7.5h-53q-8 0 -12.5 6.5t-3.5 16.5z" />
<glyph unicode="&#x201c;" horiz-adv-x="792" d="M150 1051l108 399q3 8 10.5 15.5t14.5 7.5h53q8 0 12.5 -6.5t3.5 -16.5l-53 -422q-1 -10 -10 -16t-19 -6l-98 16q-13 0 -19 9.5t-3 19.5zM440 1051l109 399q9 23 24 23h54q8 0 12.5 -6.5t3.5 -16.5l-53 -422q-1 -10 -10 -16t-19 -6l-98 16q-13 0 -19.5 9.5t-3.5 19.5z " />
<glyph unicode="&#x201d;" horiz-adv-x="792" d="M150 1028l53 422q1 10 9.5 16.5t18.5 6.5l99 -17q13 0 19 -9.5t3 -19.5l-108 -399q-9 -22 -25 -22h-53q-19 0 -16 22zM440 1028l54 422q1 10 9.5 16.5t18.5 6.5l99 -17q13 0 19 -9.5t3 -19.5l-108 -399q-9 -22 -25 -22h-53q-8 0 -13 6t-4 16z" />
<glyph unicode="&#x201e;" horiz-adv-x="792" d="M150 -262l53 422q1 10 9.5 16t18.5 6l99 -16q13 0 19 -9.5t3 -19.5l-108 -399q-3 -8 -10.5 -15.5t-14.5 -7.5h-53q-8 0 -12.5 6.5t-3.5 16.5zM440 -262l54 422q1 10 9.5 16t18.5 6l99 -16q13 0 19 -9.5t3 -19.5l-108 -399q-3 -8 -10.5 -15.5t-14.5 -7.5h-53q-8 0 -13 6.5 t-4 16.5z" />
<glyph unicode="&#x2026;" horiz-adv-x="2484" d="M426 90q0 60 17.5 77t76.5 17q63 0 80.5 -17t17.5 -77q0 -65 -18 -84.5t-80 -19.5q-58 0 -76 19.5t-18 84.5zM1143 90q0 60 17.5 77t76.5 17q63 0 80.5 -17t17.5 -77q0 -65 -18 -84.5t-80 -19.5q-58 0 -76 19.5t-18 84.5zM1866 90q0 60 17.5 77t76.5 17q63 0 80.5 -17 t17.5 -77q0 -65 -18 -84.5t-80 -19.5q-58 0 -76 19.5t-18 84.5z" />
<glyph unicode="&#x202f;" horiz-adv-x="363" />
<glyph unicode="&#x2039;" horiz-adv-x="839" d="M82 588v43q0 15 10 22l578 574q11 15 26 4l54 -64q6 -5 7 -13t-5 -13l-521 -531l521 -534q6 -5 5 -13.5t-7 -13.5l-54 -63q-15 -11 -26 4l-578 573q-10 7 -10 25z" />
<glyph unicode="&#x203a;" horiz-adv-x="839" d="M83 62.5q-1 8.5 5 13.5l520 530l-520 535q-6 5 -5 13t7 13l53 64q6 4 14 3t13 -7l578 -574q10 -8 10 -24v-43q0 -16 -10 -23l-578 -573q-5 -6 -13 -7t-14 3l-53 63q-6 5 -7 13.5z" />
<glyph unicode="&#x205f;" horiz-adv-x="454" />
<glyph unicode="&#x20ac;" d="M129 727q0 151 14 263.5t46 194.5t77 135t114.5 85t150 44.5t190.5 12.5q184 0 356 -51q17 -7 10 -27l-26 -88q-1 -7 -8.5 -10.5t-12.5 -1.5q-141 51 -317 51q-80 0 -133.5 -4.5t-102.5 -18.5t-79 -38.5t-54 -65t-37 -97.5t-20 -138h588q7 0 12.5 -5.5t5.5 -13.5v-82 q0 -8 -5.5 -13t-12.5 -5h-598v-252h598q7 0 12.5 -5t5.5 -13v-82q0 -8 -5.5 -13.5t-12.5 -5.5h-590q7 -86 19.5 -146.5t37 -104t54 -69t79.5 -40t103.5 -19t134.5 -4.5q178 0 317 50q5 2 12.5 -2t8.5 -11l26 -88q6 -19 -10 -26q-175 -52 -356 -52q-110 0 -190.5 12.5 t-150 45t-114.5 87t-77 139t-46 200.5t-14 272z" />
<glyph unicode="&#x2122;" horiz-adv-x="1480" d="M49 1368v41q0 8 7.5 13t17.5 5h479q7 0 13.5 -5.5t6.5 -12.5v-41q0 -7 -6.5 -12.5t-13.5 -5.5h-193v-617q0 -7 -6.5 -12.5t-15.5 -5.5h-51q-10 0 -17.5 5t-7.5 13v617h-188q-10 0 -17.5 5t-7.5 13zM711 733v678q3 16 22 16h88q7 0 16.5 -4.5t12.5 -11.5l166 -504l1 -6v1 q0 4 1 1t2 -8l2 12l154 496q9 24 30 24h88q15 0 23 -16v-678q0 -18 -23 -18h-53q-9 0 -15.5 5.5t-6.5 12.5v498l-146 -445q-11 -18 -26 -18h-66q-19 0 -23 14l-149 451v-500q0 -8 -7.5 -13t-17.5 -5h-51q-22 0 -22 18z" />
<glyph unicode="&#x25fc;" horiz-adv-x="1064" d="M0 0v1065h1065v-1065h-1065z" />
</font>
</defs>
</svg>
